<svg width="20" height="18" viewBox="0 0 20 18" fill="none" xmlns="http://www.w3.org/2000/svg">
<path fill-rule="evenodd" clip-rule="evenodd" d="M16.71 14.5643C17.5069 13.7673 17.9546 12.6864 17.9546 11.5593C17.9546 10.4323 17.5069 9.35136 16.71 8.55434L10.17 2.01434C9.98236 1.82684 9.8769 1.57247 9.8768 1.3072C9.87671 1.04193 9.982 0.787484 10.1695 0.599843C10.357 0.412203 10.6114 0.306734 10.8767 0.306641C11.1419 0.306547 11.3964 0.411835 11.584 0.599343L18.124 7.13934C19.2963 8.31134 19.9549 9.901 19.9551 11.5586C19.9553 13.2163 19.297 14.8061 18.125 15.9783C16.953 17.1506 15.3633 17.8093 13.7057 17.8095C12.0481 17.8096 10.4583 17.1513 9.28601 15.9793L1.332 8.02434C0.487953 7.18016 0.0138223 6.03525 0.013916 4.84149C0.0140098 3.64773 0.48832 2.50289 1.3325 1.65884C2.17669 0.814792 3.3216 0.340661 4.51536 0.340755C5.70912 0.340849 6.85395 0.815159 7.698 1.65934L15.651 9.61234C16.1546 10.131 16.4339 10.827 16.4285 11.5499C16.4231 12.2728 16.1335 12.9645 15.6223 13.4756C15.111 13.9867 14.4192 14.2761 13.6963 14.2813C12.9734 14.2865 12.2775 14.0071 11.759 13.5033L4.513 6.25634C4.32536 6.06884 4.2199 5.81447 4.2198 5.5492C4.21971 5.28393 4.325 5.02948 4.5125 4.84184C4.70001 4.6542 4.95438 4.54873 5.21965 4.54864C5.48492 4.54855 5.73936 4.65384 5.927 4.84134L13.174 12.0883C13.3148 12.2293 13.5059 12.3086 13.7052 12.3086C13.9044 12.3087 14.0955 12.2297 14.2365 12.0888C14.3775 11.948 14.4567 11.757 14.4568 11.5577C14.4569 11.3584 14.3778 11.1673 14.237 11.0263L6.284 3.07334C6.05183 2.84103 5.77617 2.65673 5.47276 2.53096C5.16936 2.40518 4.84415 2.3404 4.51571 2.34031C4.18727 2.34021 3.86203 2.40481 3.55855 2.53042C3.25508 2.65602 2.97931 2.84017 2.747 3.07234C2.27784 3.54125 2.01416 4.17732 2.01397 4.84064C2.01378 5.50395 2.2771 6.14017 2.746 6.60934L10.7 14.5633C11.497 15.3602 12.5779 15.8079 13.705 15.8079C14.8321 15.8079 15.913 15.3602 16.71 14.5633V14.5643Z" fill="white"/>
</svg>
