<svg width="74" height="74" viewBox="0 0 74 74" fill="none" xmlns="http://www.w3.org/2000/svg">
<g id="mingcute:calendar-fill">
<g clip-path="url(#clip0_132_52)">
<g id="Group">
<path id="Vector" d="M64.75 37V58.5833C64.75 60.2188 64.1003 61.7873 62.9438 62.9438C61.7873 64.1003 60.2188 64.75 58.5833 64.75H15.4167C13.7812 64.75 12.2126 64.1003 11.0562 62.9438C9.8997 61.7873 9.25 60.2188 9.25 58.5833V37H64.75ZM49.3333 9.25C50.1511 9.25 50.9353 9.57485 51.5136 10.1531C52.0918 10.7313 52.4167 11.5156 52.4167 12.3333V15.4167H58.5833C60.2188 15.4167 61.7873 16.0664 62.9438 17.2228C64.1003 18.3793 64.75 19.9478 64.75 21.5833V30.8333H9.25V21.5833C9.25 19.9478 9.8997 18.3793 11.0562 17.2228C12.2126 16.0664 13.7812 15.4167 15.4167 15.4167H21.5833V12.3333C21.5833 11.5156 21.9082 10.7313 22.4864 10.1531C23.0647 9.57485 23.8489 9.25 24.6667 9.25C25.4844 9.25 26.2687 9.57485 26.8469 10.1531C27.4251 10.7313 27.75 11.5156 27.75 12.3333V15.4167H46.25V12.3333C46.25 11.5156 46.5748 10.7313 47.1531 10.1531C47.7313 9.57485 48.5156 9.25 49.3333 9.25Z" fill="white"/>
</g>
</g>
</g>
<defs>
<clipPath id="clip0_132_52">
<rect width="74" height="74" rx="37" fill="white"/>
</clipPath>
</defs>
</svg>
