<svg width="32" height="33" viewBox="0 0 32 33" fill="none" xmlns="http://www.w3.org/2000/svg">
<g id="carbon:security">
<path id="Vector" d="M14 17.5343L11.41 14.9443L10 16.3543L14 20.3543L22 12.3543L20.59 10.9443L14 17.5343Z" fill="white"/>
<path id="Vector_2" d="M16 30.9443L9.82401 27.6513C8.06334 26.7146 6.59097 25.3162 5.56493 23.6061C4.53888 21.8959 3.99789 19.9387 4.00001 17.9443V4.94434C4.00054 4.41407 4.21142 3.90567 4.58638 3.53071C4.96134 3.15575 5.46974 2.94487 6.00001 2.94434H26C26.5303 2.94487 27.0387 3.15575 27.4136 3.53071C27.7886 3.90567 27.9995 4.41407 28 4.94434V17.9443C28.0021 19.9387 27.4611 21.8959 26.4351 23.6061C25.409 25.3162 23.9367 26.7146 22.176 27.6513L16 30.9443ZM6.00001 4.94434V17.9443C5.99835 19.5761 6.44111 21.1776 7.28077 22.5768C8.12043 23.976 9.32528 25.1201 10.766 25.8863L16 28.6773L21.234 25.8873C22.6749 25.121 23.8798 23.9768 24.7195 22.5774C25.5592 21.178 26.0018 19.5763 26 17.9443V4.94434H6.00001Z" fill="#D9EFFF"/>
</g>
</svg>
