<svg width="25" height="25" viewBox="0 0 25 25" fill="none" xmlns="http://www.w3.org/2000/svg">
<g id="emojione-v1:flag-for-azerbaijan">
<path id="Vector" d="M0 9.375H25V15.625H0V9.375Z" fill="#EC1C24"/>
<path id="Vector_2" d="M21.0938 3.90625H3.90625C1.31758 3.90625 0 5.83008 0 8.20312V9.375H25V8.20312C25 5.83008 23.6824 3.90625 21.0938 3.90625Z" fill="#1B75BB"/>
<path id="Vector_3" d="M0 16.7969C0 19.1699 1.31758 21.0938 3.90625 21.0938H21.0938C23.6824 21.0938 25 19.1699 25 16.7969V15.625H0V16.7969Z" fill="#29B473"/>
<g id="Group">
<path id="Vector_4" fill-rule="evenodd" clip-rule="evenodd" d="M13.8088 13.7616C13.3037 14.5468 12.2529 15.0441 11.1533 14.7238C10.1162 14.4202 9.40369 13.4152 9.46346 12.3312C9.52049 11.2421 10.3377 10.3156 11.401 10.1265C12.5271 9.92766 13.4306 10.5308 13.8181 11.1616C13.3592 10.7132 12.8271 10.5093 12.2037 10.5816C11.7158 10.6378 11.3072 10.8581 10.9885 11.23C10.3627 11.9577 10.3853 13.0503 11.0392 13.7378C11.4135 14.1323 11.874 14.3378 12.4181 14.3429C12.9607 14.3468 13.4209 14.1413 13.8088 13.7616Z" fill="#E6E7E8"/>
<path id="Vector_5" d="M15.5592 12.741L16.1529 12.4551L15.5592 12.1676L15.7779 11.5477L15.1549 11.7652L14.8678 11.1719L14.5826 11.7652L13.9607 11.5477L14.1764 12.1676L13.585 12.4551L14.1764 12.741L13.9607 13.3629L14.5826 13.1461L14.8678 13.7379L15.1549 13.1461L15.7779 13.3629L15.5592 12.741Z" fill="#E6E7E8"/>
</g>
</g>
</svg>
