<svg width="35" height="35" viewBox="0 0 35 35" fill="none" xmlns="http://www.w3.org/2000/svg">
<path d="M17.5003 2.91699C15.5852 2.91699 13.6889 3.2942 11.9195 4.02708C10.1502 4.75996 8.54254 5.83416 7.18835 7.18835C4.45345 9.92326 2.91699 13.6326 2.91699 17.5003C2.91699 23.9462 7.10241 29.4149 12.892 31.3545C13.6212 31.4712 13.8545 31.0191 13.8545 30.6253V28.1607C9.81491 29.0357 8.95449 26.2066 8.95449 26.2066C8.28366 24.5149 7.33574 24.0628 7.33574 24.0628C6.00866 23.1587 7.43783 23.1878 7.43783 23.1878C8.89616 23.2899 9.66908 24.6899 9.66908 24.6899C10.9378 26.9066 13.0816 26.2503 13.9128 25.9003C14.0441 24.9524 14.4232 24.3107 14.8316 23.9462C11.5941 23.5816 8.19616 22.3274 8.19616 16.7712C8.19616 15.1524 8.75033 13.8545 9.69824 12.8191C9.55241 12.4545 9.04199 10.9378 9.84408 8.96908C9.84408 8.96908 11.0691 8.57533 13.8545 10.4566C15.0066 10.1357 16.2607 9.97533 17.5003 9.97533C18.7399 9.97533 19.9941 10.1357 21.1462 10.4566C23.9316 8.57533 25.1566 8.96908 25.1566 8.96908C25.9587 10.9378 25.4482 12.4545 25.3024 12.8191C26.2503 13.8545 26.8045 15.1524 26.8045 16.7712C26.8045 22.342 23.392 23.567 20.1399 23.9316C20.6649 24.3837 21.1462 25.2732 21.1462 26.6295V30.6253C21.1462 31.0191 21.3795 31.4857 22.1232 31.3545C27.9128 29.4003 32.0837 23.9462 32.0837 17.5003C32.0837 15.5852 31.7064 13.6889 30.9736 11.9195C30.2407 10.1502 29.1665 8.54254 27.8123 7.18835C26.4581 5.83416 24.8505 4.75996 23.0811 4.02708C21.3118 3.2942 19.4154 2.91699 17.5003 2.91699Z" fill="white"/>
</svg>
