<svg width="30" height="30" viewBox="0 0 30 30" fill="none" xmlns="http://www.w3.org/2000/svg">
<path d="M6.66744 5.68109C7.95085 4.53144 9.4583 3.65983 11.0949 3.12109C11.5628 3.7076 12.1568 4.1811 12.8329 4.50637C13.509 4.83163 14.2497 5.00031 14.9999 4.99984C15.7501 5.00046 16.4907 4.83198 17.1668 4.50693C17.8429 4.18188 18.437 3.70862 18.9049 3.12234C20.5416 3.66108 22.049 4.53269 23.3324 5.68234C23.0593 6.3804 22.9469 7.13102 23.0036 7.87846C23.0603 8.6259 23.2847 9.35097 23.6599 9.99984C24.0344 10.65 24.5507 11.2073 25.1703 11.6304C25.7899 12.0535 26.4969 12.3314 27.2387 12.4436C27.5896 14.1297 27.5896 15.87 27.2387 17.5561C25.7887 17.7786 24.4512 18.6311 23.6599 19.9998C23.2845 20.6489 23.06 21.3742 23.0033 22.1218C22.9466 22.8695 23.0591 23.6204 23.3324 24.3186C22.049 25.4679 20.5415 26.339 18.9049 26.8773C18.437 26.2911 17.8429 25.8178 17.1668 25.4928C16.4907 25.1677 15.7501 24.9992 14.9999 24.9998C14.2497 24.9994 13.509 25.1681 12.8329 25.4933C12.1568 25.8186 11.5628 26.2921 11.0949 26.8786C9.45827 26.3399 7.95081 25.4683 6.66744 24.3186C6.94084 23.6204 7.05338 22.8695 6.99668 22.1218C6.93998 21.3741 6.71551 20.6488 6.33994 19.9998C5.9653 19.35 5.449 18.7929 4.82942 18.37C4.20984 17.9472 3.50291 17.6694 2.76119 17.5573C2.41033 15.8708 2.41033 14.1301 2.76119 12.4436C3.50302 12.3314 4.21002 12.0535 4.82961 11.6304C5.4492 11.2073 5.96544 10.65 6.33994 9.99984C6.71523 9.35097 6.93954 8.6259 6.99624 7.87846C7.05294 7.13102 6.94056 6.37915 6.66744 5.68109ZM16.8749 18.2461C17.3049 18.0017 17.6822 17.6746 17.9852 17.2837C18.2882 16.8929 18.5109 16.446 18.6405 15.9687C18.7701 15.4914 18.8039 14.9932 18.7402 14.5028C18.6765 14.0124 18.5163 13.5394 18.2691 13.1111C18.0218 12.6828 17.6922 12.3077 17.2994 12.0073C16.9065 11.7069 16.4581 11.4871 15.98 11.3607C15.5019 11.2343 15.0035 11.2037 14.5135 11.2707C14.0235 11.3377 13.5516 11.501 13.1249 11.7511C12.2707 12.2519 11.6492 13.0703 11.396 14.0277C11.1429 14.985 11.2788 16.0036 11.7739 16.8612C12.269 17.7188 13.0833 18.3457 14.0389 18.6052C14.9946 18.8646 16.0141 18.7355 16.8749 18.2461Z" fill="white"/>
</svg>
