<svg width="150" height="32" viewBox="0 0 150 32" fill="none" xmlns="http://www.w3.org/2000/svg">
<path d="M52.2 23V9H56.83C57.7967 9 58.7033 9.18333 59.55 9.55C60.3967 9.91 61.14 10.4133 61.78 11.06C62.42 11.7 62.92 12.4433 63.28 13.29C63.6467 14.13 63.83 15.0333 63.83 16C63.83 16.9667 63.6467 17.8733 63.28 18.72C62.92 19.56 62.42 20.3033 61.78 20.95C61.14 21.59 60.3967 22.0933 59.55 22.46C58.7033 22.82 57.7967 23 56.83 23H52.2ZM54.28 20.92H56.83C57.51 20.92 58.1433 20.7933 58.73 20.54C59.3233 20.2867 59.8467 19.9333 60.3 19.48C60.76 19.0267 61.1167 18.5033 61.37 17.91C61.6233 17.3167 61.75 16.68 61.75 16C61.75 15.32 61.6233 14.6833 61.37 14.09C61.1167 13.4967 60.76 12.9733 60.3 12.52C59.8467 12.0667 59.3233 11.7133 58.73 11.46C58.1433 11.2067 57.51 11.08 56.83 11.08H54.28V20.92ZM73.1636 13H75.2436V23H73.1536L73.0736 21.55C72.7803 22.0633 72.3836 22.4767 71.8836 22.79C71.3836 23.1033 70.7936 23.26 70.1136 23.26C69.3803 23.26 68.6903 23.1233 68.0436 22.85C67.3969 22.57 66.8269 22.1833 66.3336 21.69C65.8469 21.1967 65.4669 20.63 65.1936 19.99C64.9203 19.3433 64.7836 18.65 64.7836 17.91C64.7836 17.1967 64.9169 16.5267 65.1836 15.9C65.4503 15.2667 65.8203 14.7133 66.2936 14.24C66.7669 13.7667 67.3136 13.3967 67.9336 13.13C68.5603 12.8567 69.2303 12.72 69.9436 12.72C70.6703 12.72 71.3103 12.8867 71.8636 13.22C72.4236 13.5467 72.8869 13.9667 73.2536 14.48L73.1636 13ZM70.0636 21.25C70.6503 21.25 71.1636 21.1067 71.6036 20.82C72.0436 20.5267 72.3836 20.1333 72.6236 19.64C72.8703 19.1467 72.9936 18.6 72.9936 18C72.9936 17.3933 72.8703 16.8433 72.6236 16.35C72.3769 15.8567 72.0336 15.4667 71.5936 15.18C71.1603 14.8867 70.6503 14.74 70.0636 14.74C69.4836 14.74 68.9536 14.8867 68.4736 15.18C67.9936 15.4733 67.6136 15.8667 67.3336 16.36C67.0536 16.8533 66.9136 17.4 66.9136 18C66.9136 18.6067 67.0569 19.1567 67.3436 19.65C67.6369 20.1367 68.0203 20.5267 68.4936 20.82C68.9736 21.1067 69.4969 21.25 70.0636 21.25ZM80.2391 23.19C79.7124 23.1567 79.1991 23.05 78.6991 22.87C78.1991 22.69 77.7591 22.4467 77.3791 22.14C77.0057 21.8267 76.7257 21.46 76.5391 21.04L78.3091 20.28C78.3957 20.46 78.5457 20.6367 78.7591 20.81C78.9791 20.9833 79.2357 21.1267 79.5291 21.24C79.8224 21.3467 80.1291 21.4 80.4491 21.4C80.7624 21.4 81.0524 21.3567 81.3191 21.27C81.5924 21.1767 81.8157 21.0367 81.9891 20.85C82.1624 20.6633 82.2491 20.44 82.2491 20.18C82.2491 19.8867 82.1491 19.66 81.9491 19.5C81.7557 19.3333 81.5124 19.2067 81.2191 19.12C80.9257 19.0333 80.6324 18.95 80.3391 18.87C79.6857 18.7233 79.0857 18.5233 78.5391 18.27C77.9991 18.01 77.5691 17.68 77.2491 17.28C76.9291 16.8733 76.7691 16.3767 76.7691 15.79C76.7691 15.15 76.9424 14.5967 77.2891 14.13C77.6357 13.6567 78.0891 13.2933 78.6491 13.04C79.2157 12.7867 79.8191 12.66 80.4591 12.66C81.2591 12.66 81.9924 12.83 82.6591 13.17C83.3257 13.51 83.8357 13.9767 84.1891 14.57L82.5391 15.55C82.4391 15.35 82.2891 15.17 82.0891 15.01C81.8891 14.85 81.6624 14.7233 81.4091 14.63C81.1557 14.53 80.8924 14.4733 80.6191 14.46C80.2791 14.4467 79.9624 14.4867 79.6691 14.58C79.3824 14.6667 79.1524 14.8067 78.9791 15C78.8057 15.1933 78.7191 15.44 78.7191 15.74C78.7191 16.0333 78.8224 16.2533 79.0291 16.4C79.2357 16.54 79.4957 16.6533 79.8091 16.74C80.1291 16.8267 80.4557 16.9233 80.7891 17.03C81.3824 17.2167 81.9391 17.4467 82.4591 17.72C82.9791 17.9867 83.3991 18.3167 83.7191 18.71C84.0391 19.1033 84.1924 19.5833 84.1791 20.15C84.1791 20.7767 83.9891 21.3267 83.6091 21.8C83.2357 22.2733 82.7491 22.6333 82.1491 22.88C81.5491 23.1267 80.9124 23.23 80.2391 23.19ZM94.8914 16.73V23H92.8114V17.24C92.8114 16.7933 92.7014 16.3867 92.4814 16.02C92.2681 15.6533 91.9781 15.3633 91.6114 15.15C91.2514 14.93 90.8447 14.82 90.3914 14.82C89.9514 14.82 89.5481 14.93 89.1814 15.15C88.8147 15.3633 88.5214 15.6533 88.3014 16.02C88.0814 16.3867 87.9714 16.7933 87.9714 17.24V23H85.8914V8H87.9714V14.06C88.3181 13.6467 88.7447 13.32 89.2514 13.08C89.7581 12.84 90.3047 12.72 90.8914 12.72C91.6314 12.72 92.3047 12.9 92.9114 13.26C93.5181 13.62 93.9981 14.1033 94.3514 14.71C94.7114 15.3167 94.8914 15.99 94.8914 16.73ZM102.166 12.72C103.139 12.72 104.022 12.9567 104.816 13.43C105.616 13.9033 106.252 14.54 106.726 15.34C107.199 16.1333 107.436 17.0167 107.436 17.99C107.436 18.7167 107.299 19.4 107.026 20.04C106.752 20.6733 106.372 21.2333 105.886 21.72C105.406 22.2 104.846 22.5767 104.206 22.85C103.572 23.1233 102.892 23.26 102.166 23.26C101.466 23.26 100.852 23.1 100.326 22.78C99.8056 22.4533 99.379 22.0367 99.0456 21.53V23H96.9656V8H99.0456V14.45C99.379 13.9367 99.8056 13.52 100.326 13.2C100.852 12.88 101.466 12.72 102.166 12.72ZM102.146 21.24C102.726 21.24 103.256 21.0933 103.736 20.8C104.216 20.5067 104.596 20.1133 104.876 19.62C105.162 19.1267 105.306 18.5833 105.306 17.99C105.306 17.3833 105.162 16.8333 104.876 16.34C104.589 15.8467 104.206 15.4567 103.726 15.17C103.246 14.8767 102.719 14.73 102.146 14.73C101.566 14.73 101.056 14.8767 100.616 15.17C100.176 15.4633 99.8323 15.8567 99.5856 16.35C99.339 16.8433 99.2156 17.39 99.2156 17.99C99.2156 18.59 99.339 19.1367 99.5856 19.63C99.8323 20.1233 100.176 20.5167 100.616 20.81C101.056 21.0967 101.566 21.24 102.146 21.24ZM113.436 23.26C112.516 23.26 111.676 23.0233 110.916 22.55C110.163 22.0767 109.559 21.4433 109.106 20.65C108.659 19.85 108.436 18.9667 108.436 18C108.436 17.2667 108.566 16.5833 108.826 15.95C109.086 15.31 109.443 14.75 109.896 14.27C110.356 13.7833 110.889 13.4033 111.496 13.13C112.103 12.8567 112.749 12.72 113.436 12.72C114.356 12.72 115.193 12.9567 115.946 13.43C116.706 13.9033 117.309 14.54 117.756 15.34C118.209 16.14 118.436 17.0267 118.436 18C118.436 18.7267 118.306 19.4067 118.046 20.04C117.786 20.6733 117.426 21.2333 116.966 21.72C116.513 22.2 115.983 22.5767 115.376 22.85C114.776 23.1233 114.129 23.26 113.436 23.26ZM113.436 21.18C113.989 21.18 114.486 21.0333 114.926 20.74C115.366 20.4467 115.713 20.06 115.966 19.58C116.226 19.0933 116.356 18.5667 116.356 18C116.356 17.42 116.223 16.8867 115.956 16.4C115.696 15.9133 115.346 15.5267 114.906 15.24C114.466 14.9467 113.976 14.8 113.436 14.8C112.889 14.8 112.393 14.9467 111.946 15.24C111.506 15.5333 111.156 15.9233 110.896 16.41C110.643 16.8967 110.516 17.4267 110.516 18C110.516 18.5933 110.649 19.13 110.916 19.61C111.183 20.09 111.536 20.4733 111.976 20.76C112.423 21.04 112.909 21.18 113.436 21.18ZM127.812 13H129.892V23H127.802L127.722 21.55C127.429 22.0633 127.032 22.4767 126.532 22.79C126.032 23.1033 125.442 23.26 124.762 23.26C124.029 23.26 123.339 23.1233 122.692 22.85C122.045 22.57 121.475 22.1833 120.982 21.69C120.495 21.1967 120.115 20.63 119.842 19.99C119.569 19.3433 119.432 18.65 119.432 17.91C119.432 17.1967 119.565 16.5267 119.832 15.9C120.099 15.2667 120.469 14.7133 120.942 14.24C121.415 13.7667 121.962 13.3967 122.582 13.13C123.209 12.8567 123.879 12.72 124.592 12.72C125.319 12.72 125.959 12.8867 126.512 13.22C127.072 13.5467 127.535 13.9667 127.902 14.48L127.812 13ZM124.712 21.25C125.299 21.25 125.812 21.1067 126.252 20.82C126.692 20.5267 127.032 20.1333 127.272 19.64C127.519 19.1467 127.642 18.6 127.642 18C127.642 17.3933 127.519 16.8433 127.272 16.35C127.025 15.8567 126.682 15.4667 126.242 15.18C125.809 14.8867 125.299 14.74 124.712 14.74C124.132 14.74 123.602 14.8867 123.122 15.18C122.642 15.4733 122.262 15.8667 121.982 16.36C121.702 16.8533 121.562 17.4 121.562 18C121.562 18.6067 121.705 19.1567 121.992 19.65C122.285 20.1367 122.669 20.5267 123.142 20.82C123.622 21.1067 124.145 21.25 124.712 21.25ZM131.888 23V13H133.968V14.06C134.314 13.6467 134.741 13.32 135.248 13.08C135.754 12.84 136.301 12.72 136.888 12.72C137.261 12.72 137.631 12.77 137.998 12.87L137.168 14.97C136.908 14.87 136.648 14.82 136.388 14.82C135.948 14.82 135.544 14.93 135.178 15.15C134.811 15.3633 134.518 15.6533 134.298 16.02C134.078 16.3867 133.968 16.7933 133.968 17.24V23H131.888ZM146.474 8H148.554V23H146.474V21.53C146.148 22.05 145.721 22.47 145.194 22.79C144.668 23.1033 144.051 23.26 143.344 23.26C142.618 23.26 141.938 23.1233 141.304 22.85C140.671 22.5767 140.111 22.2 139.624 21.72C139.144 21.2333 138.768 20.6733 138.494 20.04C138.221 19.4067 138.084 18.7267 138.084 18C138.084 17.2733 138.221 16.5933 138.494 15.96C138.768 15.32 139.144 14.76 139.624 14.28C140.111 13.7933 140.671 13.4133 141.304 13.14C141.938 12.8667 142.618 12.73 143.344 12.73C144.051 12.73 144.668 12.89 145.194 13.21C145.721 13.5233 146.148 13.9367 146.474 14.45V8ZM143.364 21.25C143.951 21.25 144.464 21.1067 144.904 20.82C145.344 20.5267 145.684 20.1333 145.924 19.64C146.171 19.1467 146.294 18.6 146.294 18C146.294 17.3933 146.171 16.8433 145.924 16.35C145.678 15.8567 145.334 15.4667 144.894 15.18C144.461 14.8867 143.951 14.74 143.364 14.74C142.784 14.74 142.254 14.8867 141.774 15.18C141.301 15.4733 140.921 15.8667 140.634 16.36C140.354 16.8533 140.214 17.4 140.214 18C140.214 18.6067 140.358 19.1567 140.644 19.65C140.938 20.1367 141.321 20.5267 141.794 20.82C142.274 21.1067 142.798 21.25 143.364 21.25Z" fill="white"/>
<path d="M4 17.3333H14.6667V4H4V17.3333ZM4 28H14.6667V20H4V28ZM17.3333 28H28V14.6667H17.3333V28ZM17.3333 4V12H28V4H17.3333Z" fill="white"/>
</svg>
