<svg width="36" height="36" viewBox="0 0 36 36" fill="none" xmlns="http://www.w3.org/2000/svg">
<path d="M18 33C14.525 32.125 11.656 30.131 9.393 27.018C7.13 23.905 5.999 20.449 6 16.65V7.5L18 3L30 7.5V16.65C30 20.45 28.869 23.9065 26.607 27.0195C24.345 30.1325 21.476 32.126 18 33ZM18 25.5C20.075 25.5 21.844 24.7685 23.307 23.3055C24.77 21.8425 25.501 20.074 25.5 18C25.5 15.925 24.7685 14.1565 23.3055 12.6945C21.8425 11.2325 20.074 10.501 18 10.5C15.925 10.5 14.1565 11.2315 12.6945 12.6945C11.2325 14.1575 10.501 15.926 10.5 18C10.5 20.075 11.2315 21.844 12.6945 23.307C14.1575 24.77 15.926 25.501 18 25.5ZM20.475 21.525L17.25 18.3V13.5H18.75V17.7L21.525 20.475L20.475 21.525Z" fill="white"/>
</svg>
