<svg width="40" height="40" viewBox="0 0 40 40" fill="none" xmlns="http://www.w3.org/2000/svg">
<path d="M34.2857 28.5588C33.2684 28.564 32.2714 28.8438 31.4 29.3684L25.9529 23.9222C26.7289 22.758 27.1431 21.3902 27.1431 19.9911C27.1431 18.5921 26.7289 17.2243 25.9529 16.06L29.5914 12.4231C30.5119 12.8662 31.5595 12.9694 32.5488 12.7144C33.5381 12.4594 34.4052 11.8626 34.9964 11.0298C35.5876 10.197 35.8649 9.18187 35.779 8.16428C35.6932 7.1467 35.2498 6.19232 34.5273 5.47022C33.8049 4.74813 32.8501 4.30492 31.8321 4.21911C30.8141 4.1333 29.7985 4.41042 28.9653 5.00139C28.1321 5.59237 27.5351 6.45904 27.2799 7.44789C27.0248 8.43673 27.1281 9.48392 27.5714 10.404L23.9329 14.0409C22.7681 13.2652 21.3997 12.8512 20 12.8512C18.6003 12.8512 17.2319 13.2652 16.0671 14.0409L10.6186 8.59476C11.1432 7.72412 11.423 6.7281 11.4286 5.71175C11.4286 4.58208 11.0934 3.47777 10.4655 2.53847C9.83765 1.59918 8.9452 0.867093 7.90105 0.434784C6.8569 0.00247479 5.70795 -0.110637 4.59949 0.109752C3.49102 0.330141 2.47283 0.874133 1.67368 1.67294C0.874521 2.47174 0.330288 3.48947 0.109801 4.59745C-0.110686 5.70542 0.00247589 6.85386 0.434977 7.89755C0.867477 8.94123 1.59989 9.83328 2.5396 10.4609C3.47931 11.0885 4.58411 11.4235 5.71429 11.4235C6.73157 11.4182 7.72856 11.1385 8.6 10.6139L14.0471 16.06C13.2711 17.2243 12.8569 18.5921 12.8569 19.9911C12.8569 21.3902 13.2711 22.758 14.0471 23.9222L8.59857 29.3684C7.72752 28.8441 6.73108 28.5644 5.71429 28.5588C4.58411 28.5588 3.47931 28.8937 2.5396 29.5214C1.59989 30.149 0.867477 31.041 0.434977 32.0847C0.00247589 33.1284 -0.110686 34.2768 0.109801 35.3848C0.330288 36.4928 0.874521 37.5105 1.67368 38.3093C2.47283 39.1081 3.49102 39.6521 4.59949 39.8725C5.70795 40.0929 6.8569 39.9798 7.90105 39.5475C8.9452 39.1152 9.83765 38.3831 10.4655 37.4438C11.0934 36.5045 11.4286 35.4002 11.4286 34.2705C11.4233 33.2537 11.1434 32.2571 10.6186 31.3861L16.0671 25.9413C16.8269 26.4475 17.6772 26.8024 18.5714 26.9866V31.6774C17.6183 32.0142 16.8149 32.677 16.3034 33.5487C15.7918 34.4203 15.605 35.4446 15.776 36.4406C15.947 37.4366 16.4647 38.3401 17.2376 38.9914C18.0106 39.6428 18.989 40 20 40C21.011 40 21.9894 39.6428 22.7624 38.9914C23.5353 38.3401 24.053 37.4366 24.224 36.4406C24.395 35.4446 24.2082 34.4203 23.6966 33.5487C23.1851 32.677 22.3817 32.0142 21.4286 31.6774V26.9866C22.3228 26.8024 23.1731 26.4475 23.9329 25.9413L29.3814 31.3875C28.8568 32.2581 28.577 33.2542 28.5714 34.2705C28.5714 35.4002 28.9066 36.5045 29.5345 37.4438C30.1624 38.3831 31.0548 39.1152 32.0989 39.5475C33.1431 39.9798 34.292 40.0929 35.4005 39.8725C36.509 39.6521 37.5272 39.1081 38.3263 38.3093C39.1255 37.5105 39.6697 36.4928 39.8902 35.3848C40.1107 34.2768 39.9975 33.1284 39.565 32.0847C39.1325 31.041 38.4001 30.149 37.4604 29.5214C36.5207 28.8937 35.4159 28.5588 34.2857 28.5588ZM20 15.7073C20.8476 15.7073 21.6762 15.9586 22.381 16.4293C23.0858 16.9 23.6351 17.569 23.9595 18.3518C24.2839 19.1346 24.3687 19.9959 24.2034 20.8269C24.038 21.6578 23.6298 22.4211 23.0305 23.0202C22.4311 23.6193 21.6674 24.0273 20.8361 24.1926C20.0048 24.3579 19.143 24.2731 18.3599 23.9489C17.5768 23.6246 16.9075 23.0756 16.4366 22.3711C15.9656 21.6666 15.7143 20.8384 15.7143 19.9911C15.7154 18.8553 16.1673 17.7664 16.9708 16.9633C17.7743 16.1601 18.8637 15.7085 20 15.7073ZM2.85714 5.71175C2.85714 5.14691 3.02471 4.59476 3.33866 4.12511C3.65261 3.65547 4.09883 3.28942 4.62091 3.07327C5.14298 2.85711 5.71746 2.80056 6.27169 2.91075C6.82592 3.02095 7.33501 3.29294 7.73459 3.69234C8.13417 4.09175 8.40629 4.60061 8.51653 5.1546C8.62677 5.70858 8.57019 6.28281 8.35394 6.80465C8.13769 7.32649 7.77149 7.77252 7.30163 8.08633C6.83178 8.40013 6.27938 8.56763 5.71429 8.56763C4.95676 8.56687 4.23047 8.26574 3.69482 7.73033C3.15916 7.19491 2.8579 6.46895 2.85714 5.71175ZM5.71429 37.1264C5.1492 37.1264 4.5968 36.9589 4.12694 36.6451C3.65709 36.3313 3.29088 35.8852 3.07463 35.3634C2.85838 34.8416 2.8018 34.2673 2.91204 33.7134C3.02229 33.1594 3.2944 32.6505 3.69398 32.2511C4.09356 31.8517 4.60265 31.5797 5.15689 31.4695C5.71112 31.3593 6.28559 31.4159 6.80767 31.632C7.32974 31.8482 7.77597 32.2142 8.08991 32.6839C8.40386 33.1535 8.57143 33.7057 8.57143 34.2705C8.57067 35.0277 8.26941 35.7537 7.73376 36.2891C7.1981 36.8245 6.47182 37.1256 5.71429 37.1264ZM34.2857 37.1264C33.7206 37.1264 33.1682 36.9589 32.6984 36.6451C32.2285 36.3313 31.8623 35.8852 31.6461 35.3634C31.4298 34.8416 31.3732 34.2673 31.4835 33.7134C31.5937 33.1594 31.8658 32.6505 32.2654 32.2511C32.665 31.8517 33.1741 31.5797 33.7283 31.4695C34.2825 31.3593 34.857 31.4159 35.3791 31.632C35.9012 31.8482 36.3474 32.2142 36.6613 32.6839C36.9753 33.1535 37.1429 33.7057 37.1429 34.2705C37.1417 35.0276 36.8403 35.7533 36.3048 36.2887C35.7692 36.824 35.0431 37.1252 34.2857 37.1264Z" fill="white"/>
</svg>
