<svg width="28" height="20" viewBox="0 0 28 20" fill="none" xmlns="http://www.w3.org/2000/svg">
<path d="M5.5625 0.625C4.3193 0.625 3.12701 1.11886 2.24794 1.99794C1.36886 2.87701 0.875 4.0693 0.875 5.3125V6.25H27.125V5.3125C27.125 4.0693 26.6311 2.87701 25.7521 1.99794C24.873 1.11886 23.6807 0.625 22.4375 0.625H5.5625ZM27.125 8.125H0.875V14.6875C0.875 15.9307 1.36886 17.123 2.24794 18.0021C3.12701 18.8811 4.3193 19.375 5.5625 19.375H22.4375C23.6807 19.375 24.873 18.8811 25.7521 18.0021C26.6311 17.123 27.125 15.9307 27.125 14.6875V8.125ZM18.6875 13.75H22.4375C22.6861 13.75 22.9246 13.8488 23.1004 14.0246C23.2762 14.2004 23.375 14.4389 23.375 14.6875C23.375 14.9361 23.2762 15.1746 23.1004 15.3504C22.9246 15.5262 22.6861 15.625 22.4375 15.625H18.6875C18.4389 15.625 18.2004 15.5262 18.0246 15.3504C17.8488 15.1746 17.75 14.9361 17.75 14.6875C17.75 14.4389 17.8488 14.2004 18.0246 14.0246C18.2004 13.8488 18.4389 13.75 18.6875 13.75Z" fill="white"/>
</svg>
