<svg width="40" height="40" viewBox="0 0 40 40" fill="none" xmlns="http://www.w3.org/2000/svg">
<g id="fluent:people-team-28-filled">
<path id="Vector" d="M25.3626 15.7147C26.7426 15.7147 27.8626 16.8347 27.8626 18.2147V27.8561C27.8626 29.9404 27.0347 31.9392 25.5609 33.413C24.0872 34.8867 22.0883 35.7147 20.0041 35.7147C17.9199 35.7147 15.921 34.8867 14.4472 33.413C12.9735 31.9392 12.1455 29.9404 12.1455 27.8561V18.2147C12.1455 16.8347 13.2641 15.7147 14.6455 15.7147H25.3626ZM5.35693 15.7147L11.6169 15.7118C11.1021 16.3322 10.7922 17.0967 10.7298 17.9004L10.7155 18.2147V27.8561C10.7155 29.4747 11.1312 30.9976 11.8584 32.3233C10.8797 32.7503 9.81004 32.9269 8.74602 32.837C7.68201 32.7472 6.65712 32.3938 5.76387 31.8088C4.87061 31.2237 4.13713 30.4254 3.62962 29.4859C3.12211 28.5464 2.85656 27.4954 2.85693 26.4276V18.2147C2.85769 17.5516 3.12152 16.916 3.59051 16.4473C4.05949 15.9785 4.69388 15.7151 5.35693 15.7147ZM28.3926 15.7118L34.6426 15.7147C36.0226 15.7147 37.1426 16.8347 37.1426 18.2147V26.429C37.1431 27.4964 36.8777 28.5471 36.3705 29.4862C35.8634 30.4254 35.1303 31.2235 34.2375 31.8085C33.3448 32.3936 32.3204 32.7471 31.2568 32.8372C30.1932 32.9273 29.124 32.7512 28.1455 32.3247L28.2255 32.179C28.8384 31.0176 29.2112 29.709 29.2798 28.3218L29.2912 27.8561V18.2147C29.2912 17.2633 28.9541 16.3918 28.3926 15.7118ZM19.9998 4.28613C20.6564 4.28613 21.3066 4.41546 21.9132 4.66674C22.5198 4.91801 23.071 5.28631 23.5353 5.7506C23.9996 6.21489 24.3679 6.76609 24.6192 7.37272C24.8705 7.97934 24.9998 8.62952 24.9998 9.28613C24.9998 9.94274 24.8705 10.5929 24.6192 11.1995C24.3679 11.8062 23.9996 12.3574 23.5353 12.8217C23.071 13.286 22.5198 13.6543 21.9132 13.9055C21.3066 14.1568 20.6564 14.2861 19.9998 14.2861C18.6737 14.2861 17.4019 13.7593 16.4643 12.8217C15.5266 11.884 14.9998 10.6122 14.9998 9.28613C14.9998 7.96005 15.5266 6.68828 16.4643 5.7506C17.4019 4.81292 18.6737 4.28613 19.9998 4.28613ZM31.4326 5.7147C31.9955 5.7147 32.5528 5.82556 33.0727 6.04094C33.5927 6.25631 34.0651 6.572 34.4631 6.96996C34.8611 7.36793 35.1768 7.84038 35.3921 8.36035C35.6075 8.88031 35.7184 9.43761 35.7184 10.0004C35.7184 10.5632 35.6075 11.1205 35.3921 11.6405C35.1768 12.1605 34.8611 12.6329 34.4631 13.0309C34.0651 13.4288 33.5927 13.7445 33.0727 13.9599C32.5528 14.1753 31.9955 14.2861 31.4326 14.2861C30.296 14.2861 29.2059 13.8346 28.4022 13.0309C27.5985 12.2271 27.1469 11.1371 27.1469 10.0004C27.1469 8.86378 27.5985 7.77369 28.4022 6.96996C29.2059 6.16623 30.296 5.7147 31.4326 5.7147ZM8.56693 5.7147C9.12974 5.7147 9.68704 5.82556 10.207 6.04094C10.727 6.25631 11.1994 6.572 11.5974 6.96996C11.9954 7.36793 12.311 7.84038 12.5264 8.36035C12.7418 8.88031 12.8526 9.43761 12.8526 10.0004C12.8526 10.5632 12.7418 11.1205 12.5264 11.6405C12.311 12.1605 11.9954 12.6329 11.5974 13.0309C11.1994 13.4288 10.727 13.7445 10.207 13.9599C9.68704 14.1753 9.12974 14.2861 8.56693 14.2861C7.43029 14.2861 6.3402 13.8346 5.53648 13.0309C4.73275 12.2271 4.28122 11.1371 4.28122 10.0004C4.28122 8.86378 4.73275 7.77369 5.53648 6.96996C6.3402 6.16623 7.43029 5.7147 8.56693 5.7147Z" fill="white"/>
</g>
</svg>
