<svg width="40" height="40" viewBox="0 0 40 40" fill="none" xmlns="http://www.w3.org/2000/svg">
<g id="bitcoin-icons:node-1-connection-filled">
<path id="Vector" d="M20.9001 11.9413C21.7334 11.6713 22.4018 11.0363 22.7184 10.2246L29.7734 17.2813C29.3708 17.4393 29.0081 17.6844 28.7113 17.9991C28.4145 18.3137 28.191 18.6901 28.0568 19.1013L20.9001 11.9413ZM28.0584 20.8996L20.8984 28.0579C21.7318 28.3279 22.4018 28.9629 22.7184 29.7746L29.7734 22.7179C29.3705 22.5604 29.0075 22.3155 28.7107 22.0007C28.4138 21.686 28.1905 21.3094 28.0568 20.8979M19.1001 28.0579L11.9418 20.8979C11.6718 21.7313 11.0384 22.4013 10.2251 22.7179L17.2818 29.7729C17.5984 28.9613 18.2668 28.3279 19.1018 28.0563M19.1001 11.9413L11.9418 19.1013C11.808 18.6898 11.5847 18.3132 11.2878 17.9985C10.991 17.6838 10.628 17.4388 10.2251 17.2813L17.2818 10.2263C17.5984 11.0379 18.2668 11.6713 19.1018 11.9429" fill="white"/>
<path id="Vector_2" fill-rule="evenodd" clip-rule="evenodd" d="M20.0002 7.5C19.5581 7.5 19.1342 7.6756 18.8217 7.98816C18.5091 8.30072 18.3335 8.72464 18.3335 9.16667C18.3335 9.60869 18.5091 10.0326 18.8217 10.3452C19.1342 10.6577 19.5581 10.8333 20.0002 10.8333C20.4422 10.8333 20.8661 10.6577 21.1787 10.3452C21.4912 10.0326 21.6668 9.60869 21.6668 9.16667C21.6668 8.72464 21.4912 8.30072 21.1787 7.98816C20.8661 7.6756 20.4422 7.5 20.0002 7.5ZM15.8335 9.16667C15.8335 8.0616 16.2725 7.00179 17.0539 6.22039C17.8353 5.43899 18.8951 5 20.0002 5C21.1052 5 22.165 5.43899 22.9464 6.22039C23.7278 7.00179 24.1668 8.0616 24.1668 9.16667C24.1668 10.2717 23.7278 11.3315 22.9464 12.1129C22.165 12.8943 21.1052 13.3333 20.0002 13.3333C18.8951 13.3333 17.8353 12.8943 17.0539 12.1129C16.2725 11.3315 15.8335 10.2717 15.8335 9.16667ZM20.0002 29.1667C19.5581 29.1667 19.1342 29.3423 18.8217 29.6548C18.5091 29.9674 18.3335 30.3913 18.3335 30.8333C18.3335 31.2754 18.5091 31.6993 18.8217 32.0118C19.1342 32.3244 19.5581 32.5 20.0002 32.5C20.4422 32.5 20.8661 32.3244 21.1787 32.0118C21.4912 31.6993 21.6668 31.2754 21.6668 30.8333C21.6668 30.3913 21.4912 29.9674 21.1787 29.6548C20.8661 29.3423 20.4422 29.1667 20.0002 29.1667ZM15.8335 30.8333C15.8335 29.7283 16.2725 28.6685 17.0539 27.8871C17.8353 27.1057 18.8951 26.6667 20.0002 26.6667C21.1052 26.6667 22.165 27.1057 22.9464 27.8871C23.7278 28.6685 24.1668 29.7283 24.1668 30.8333C24.1668 31.9384 23.7278 32.9982 22.9464 33.7796C22.165 34.561 21.1052 35 20.0002 35C18.8951 35 17.8353 34.561 17.0539 33.7796C16.2725 32.9982 15.8335 31.9384 15.8335 30.8333Z" fill="white"/>
<path id="Vector_3" d="M9.16667 24.1663C11.4679 24.1663 13.3333 22.3009 13.3333 19.9997C13.3333 17.6985 11.4679 15.833 9.16667 15.833C6.86548 15.833 5 17.6985 5 19.9997C5 22.3009 6.86548 24.1663 9.16667 24.1663Z" fill="white"/>
<path id="Vector_4" fill-rule="evenodd" clip-rule="evenodd" d="M30.8332 18.333C30.3911 18.333 29.9672 18.5086 29.6547 18.8212C29.3421 19.1337 29.1665 19.5576 29.1665 19.9997C29.1665 20.4417 29.3421 20.8656 29.6547 21.1782C29.9672 21.4907 30.3911 21.6663 30.8332 21.6663C31.2752 21.6663 31.6991 21.4907 32.0117 21.1782C32.3242 20.8656 32.4998 20.4417 32.4998 19.9997C32.4998 19.5576 32.3242 19.1337 32.0117 18.8212C31.6991 18.5086 31.2752 18.333 30.8332 18.333ZM26.6665 19.9997C26.6665 18.8946 27.1055 17.8348 27.8869 17.0534C28.6683 16.272 29.7281 15.833 30.8332 15.833C31.9382 15.833 32.998 16.272 33.7794 17.0534C34.5609 17.8348 34.9998 18.8946 34.9998 19.9997C34.9998 21.1047 34.5609 22.1646 33.7794 22.946C32.998 23.7274 31.9382 24.1663 30.8332 24.1663C29.7281 24.1663 28.6683 23.7274 27.8869 22.946C27.1055 22.1646 26.6665 21.1047 26.6665 19.9997Z" fill="white"/>
</g>
</svg>
