<svg width="40" height="40" viewBox="0 0 40 40" fill="none" xmlns="http://www.w3.org/2000/svg">
<g id="eos-icons:trusted-organization">
<path id="Vector" d="M31.6668 15.0001C31.6676 12.9916 31.1498 11.0169 30.1636 9.2672C29.1773 7.5175 27.7561 6.05204 26.0375 5.01268C24.3188 3.97332 22.3609 3.39525 20.3534 3.33445C18.3458 3.27365 16.3565 3.73216 14.5781 4.6656C12.7997 5.59905 11.2924 6.97581 10.2021 8.66262C9.11179 10.3494 8.47544 12.2891 8.35462 14.294C8.23381 16.2989 8.63263 18.301 9.51247 20.1065C10.3923 21.912 11.7234 23.4598 13.3768 24.6001L8.3335 33.3334L12.0935 33.4884L14.1068 36.6667L19.8835 26.6601C19.9235 26.6601 19.9602 26.6667 20.0002 26.6667C20.0402 26.6667 20.0768 26.6617 20.1168 26.6601L25.8935 36.6667L27.9468 33.5567L31.6668 33.3334L26.6235 24.6001C28.1795 23.5287 29.4516 22.0951 30.3302 20.4226C31.2088 18.7502 31.6676 16.8892 31.6668 15.0001ZM11.6668 15.0001C11.6668 13.3519 12.1556 11.7407 13.0713 10.3703C13.9869 8.99991 15.2884 7.9318 16.8111 7.30107C18.3339 6.67034 20.0094 6.50531 21.6259 6.82686C23.2424 7.1484 24.7273 7.94207 25.8927 9.10751C27.0582 10.2729 27.8518 11.7578 28.1734 13.3743C28.4949 14.9908 28.3299 16.6664 27.6992 18.1891C27.0684 19.7118 26.0003 21.0133 24.6299 21.929C23.2595 22.8447 21.6483 23.3334 20.0002 23.3334C17.79 23.3334 15.6704 22.4554 14.1076 20.8926C12.5448 19.3298 11.6668 17.2102 11.6668 15.0001Z" fill="white"/>
<path id="Vector_2" d="M20 20C22.7614 20 25 17.7614 25 15C25 12.2386 22.7614 10 20 10C17.2386 10 15 12.2386 15 15C15 17.7614 17.2386 20 20 20Z" fill="white"/>
</g>
</svg>
