<svg width="31" height="30" viewBox="0 0 31 30" fill="none" xmlns="http://www.w3.org/2000/svg">
<path fill-rule="evenodd" clip-rule="evenodd" d="M15.0391 1.25C14.6807 1.24995 14.3266 1.32694 14.0006 1.47573C13.6746 1.62453 13.3844 1.84167 13.1497 2.11242C12.915 2.38318 12.7412 2.70123 12.6402 3.04502C12.5391 3.38881 12.5132 3.7503 12.5641 4.105C10.7523 4.63991 9.16227 5.74652 8.0313 7.25959C6.90034 8.77265 6.28916 10.611 6.28906 12.5V22.5H5.03906C4.70754 22.5 4.3896 22.6317 4.15518 22.8661C3.92076 23.1005 3.78906 23.4185 3.78906 23.75C3.78906 24.0815 3.92076 24.3995 4.15518 24.6339C4.3896 24.8683 4.70754 25 5.03906 25H25.0391C25.3706 25 25.6885 24.8683 25.9229 24.6339C26.1574 24.3995 26.2891 24.0815 26.2891 23.75C26.2891 23.4185 26.1574 23.1005 25.9229 22.8661C25.6885 22.6317 25.3706 22.5 25.0391 22.5H23.7891V12.5C23.789 10.611 23.1778 8.77265 22.0468 7.25959C20.9159 5.74652 19.3258 4.63991 17.5141 4.105C17.5649 3.7503 17.539 3.38881 17.4379 3.04502C17.3369 2.70123 17.1631 2.38318 16.9284 2.11242C16.6937 1.84167 16.4035 1.62453 16.0775 1.47573C15.7515 1.32694 15.3974 1.24995 15.0391 1.25ZM17.5391 27.5C17.5391 27.8315 17.4074 28.1495 17.1729 28.3839C16.9385 28.6183 16.6206 28.75 16.2891 28.75H13.7891C13.4575 28.75 13.1396 28.6183 12.9052 28.3839C12.6708 28.1495 12.5391 27.8315 12.5391 27.5C12.5391 27.1685 12.6708 26.8505 12.9052 26.6161C13.1396 26.3817 13.4575 26.25 13.7891 26.25H16.2891C16.6206 26.25 16.9385 26.3817 17.1729 26.6161C17.4074 26.8505 17.5391 27.1685 17.5391 27.5Z" fill="white"/>
</svg>
