<svg width="34" height="34" viewBox="0 0 34 34" fill="none" xmlns="http://www.w3.org/2000/svg">
<path d="M26.918 11.3335H24.3538C23.7148 10.2253 22.8334 9.27602 21.7755 8.55682L23.093 7.23932C23.2241 7.10816 23.3282 6.95246 23.3991 6.78109C23.4701 6.60972 23.5067 6.42606 23.5067 6.24057C23.5067 6.05509 23.4701 5.87142 23.3991 5.70005C23.3282 5.52869 23.2241 5.37298 23.093 5.24182C22.9618 5.11066 22.8061 5.00662 22.6347 4.93564C22.4634 4.86466 22.2797 4.82812 22.0942 4.82812C21.7196 4.82812 21.3604 4.97694 21.0955 5.24182L19.013 7.32432C18.3613 7.16849 17.6955 7.08349 17.0013 7.08349C16.3071 7.08349 15.6413 7.16849 15.0038 7.32432L12.9071 5.24182C12.776 5.11066 12.6203 5.00662 12.4489 4.93564C12.2775 4.86466 12.0939 4.82812 11.9084 4.82812C11.7229 4.82812 11.5392 4.86466 11.3679 4.93564C11.1965 5.00662 11.0408 5.11066 10.9096 5.24182C10.6448 5.50671 10.4959 5.86597 10.4959 6.24057C10.4959 6.61517 10.6448 6.97444 10.9096 7.23932L12.213 8.55682C11.1646 9.27932 10.2863 10.2285 9.6488 11.3335H7.08464C6.30547 11.3335 5.66797 11.971 5.66797 12.7502C5.66797 13.5293 6.30547 14.1668 7.08464 14.1668H8.6288C8.55797 14.6343 8.5013 15.1018 8.5013 15.5835V17.0002H7.08464C6.30547 17.0002 5.66797 17.6377 5.66797 18.4168C5.66797 19.196 6.30547 19.8335 7.08464 19.8335H8.5013V21.2502C8.5013 21.7318 8.55797 22.1993 8.6288 22.6668H7.08464C6.30547 22.6668 5.66797 23.3043 5.66797 24.0835C5.66797 24.8627 6.30547 25.5002 7.08464 25.5002H9.6488C11.1221 28.036 13.8563 29.7502 17.0013 29.7502C20.1463 29.7502 22.8805 28.036 24.3538 25.5002H26.918C27.6971 25.5002 28.3346 24.8627 28.3346 24.0835C28.3346 23.3043 27.6971 22.6668 26.918 22.6668H25.3738C25.4446 22.1993 25.5013 21.7318 25.5013 21.2502V19.8335H26.918C27.6971 19.8335 28.3346 19.196 28.3346 18.4168C28.3346 17.6377 27.6971 17.0002 26.918 17.0002H25.5013V15.5835C25.5013 15.1018 25.4446 14.6343 25.3738 14.1668H26.918C27.6971 14.1668 28.3346 13.5293 28.3346 12.7502C28.3346 11.971 27.6971 11.3335 26.918 11.3335ZM18.418 22.6668H15.5846C14.8055 22.6668 14.168 22.0293 14.168 21.2502C14.168 20.471 14.8055 19.8335 15.5846 19.8335H18.418C19.1971 19.8335 19.8346 20.471 19.8346 21.2502C19.8346 22.0293 19.1971 22.6668 18.418 22.6668ZM18.418 17.0002H15.5846C14.8055 17.0002 14.168 16.3627 14.168 15.5835C14.168 14.8043 14.8055 14.1668 15.5846 14.1668H18.418C19.1971 14.1668 19.8346 14.8043 19.8346 15.5835C19.8346 16.3627 19.1971 17.0002 18.418 17.0002Z" fill="white"/>
</svg>
