<svg width="32" height="32" viewBox="0 0 32 32" fill="none" xmlns="http://www.w3.org/2000/svg">
<path d="M15.334 22.6663C17.0007 22.6663 18.4175 22.0832 19.5847 20.917C20.7518 19.7508 21.3349 18.3339 21.334 16.6663V10.6663H15.334C13.6673 10.6663 12.2509 11.2499 11.0847 12.417C9.91843 13.5841 9.33487 15.0006 9.33398 16.6663C9.33398 17.2441 9.41176 17.7997 9.56732 18.333C9.72287 18.8663 9.95621 19.3775 10.2673 19.8663L9.73398 20.3997C9.48954 20.6441 9.36732 20.9552 9.36732 21.333C9.36732 21.7108 9.48954 22.0219 9.73398 22.2663C9.97843 22.5108 10.2895 22.633 10.6673 22.633C11.0451 22.633 11.3562 22.5108 11.6007 22.2663L12.134 21.733C12.6229 22.0441 13.134 22.2775 13.6673 22.433C14.2007 22.5886 14.7562 22.6663 15.334 22.6663ZM16.0007 30.6663L11.4007 27.0663L5.63398 26.3663L4.93398 20.5997L1.33398 15.9997L4.93398 11.3997L5.63398 5.63301L11.4007 4.93301L16.0007 1.33301L20.6007 4.93301L26.3673 5.63301L27.0673 11.3997L30.6673 15.9997L27.0673 20.5997L26.3673 26.3663L20.6007 27.0663L16.0007 30.6663ZM16.934 16.933C17.1784 16.6663 17.3007 16.3499 17.3007 15.9837C17.3007 15.6175 17.1784 15.3117 16.934 15.0663C16.6895 14.8219 16.3842 14.6997 16.018 14.6997C15.6518 14.6997 15.3349 14.8219 15.0673 15.0663L13.2007 16.933C12.934 17.1997 12.8007 17.5166 12.8007 17.8837C12.8007 18.2508 12.934 18.5672 13.2007 18.833C13.4673 19.0997 13.7842 19.233 14.1513 19.233C14.5184 19.233 14.8238 19.0997 15.0673 18.833L16.934 16.933Z" fill="white"/>
</svg>
