<svg width="30" height="30" viewBox="0 0 30 30" fill="none" xmlns="http://www.w3.org/2000/svg">
<path d="M15 2.5C13.3585 2.5 11.733 2.82332 10.2165 3.45151C8.69989 4.07969 7.3219 5.00043 6.16117 6.16117C3.81696 8.50537 2.5 11.6848 2.5 15C2.5 18.3152 3.81696 21.4946 6.16117 23.8388C7.3219 24.9996 8.69989 25.9203 10.2165 26.5485C11.733 27.1767 13.3585 27.5 15 27.5C18.3152 27.5 21.4946 26.183 23.8388 23.8388C26.183 21.4946 27.5 18.3152 27.5 15C27.5 13.3585 27.1767 11.733 26.5485 10.2165C25.9203 8.69989 24.9996 7.3219 23.8388 6.16117C22.6781 5.00043 21.3001 4.07969 19.7835 3.45151C18.267 2.82332 16.6415 2.5 15 2.5ZM15 10.4875C17.0169 11.7979 19.3698 12.4968 21.775 12.5C22.75 12.5 23.6875 12.3875 24.5875 12.175C24.85 13.0625 25 14.0125 25 15C25 20.5125 20.5125 25 15 25C11.25 25 7.9875 22.925 6.25 19.8625L8.4375 17.5V16.25C8.4375 15.8356 8.60212 15.4382 8.89515 15.1451C9.18817 14.8521 9.5856 14.6875 10 14.6875C10.4144 14.6875 10.8118 14.8521 11.1049 15.1451C11.3979 15.4382 11.5625 15.8356 11.5625 16.25V17.5H15M20 14.6875C19.5856 14.6875 19.1882 14.8521 18.8951 15.1451C18.6021 15.4382 18.4375 15.8356 18.4375 16.25C18.4375 16.6644 18.6021 17.0618 18.8951 17.3549C19.1882 17.6479 19.5856 17.8125 20 17.8125C20.4144 17.8125 20.8118 17.6479 21.1049 17.3549C21.3979 17.0618 21.5625 16.6644 21.5625 16.25C21.5625 15.8356 21.3979 15.4382 21.1049 15.1451C20.8118 14.8521 20.4144 14.6875 20 14.6875Z" fill="white"/>
</svg>
