<svg width="33" height="26" viewBox="0 0 33 26" fill="none" xmlns="http://www.w3.org/2000/svg">
<g clip-path="url(#clip0_822_325)">
<path d="M18.2428 2.74724L17.0259 0.319898C16.8248 -0.101586 16.1958 -0.11682 15.9741 0.319898L14.7572 2.74724L12.0605 3.1281C11.5809 3.1992 11.3747 3.78318 11.7305 4.13357L13.6898 6.01248L13.2258 8.65818C13.1536 9.13045 13.6486 9.49607 14.092 9.27771L16.5103 8.01834L18.9131 9.2574C19.3566 9.47576 19.8567 9.11013 19.7794 8.63787L19.3153 5.99216L21.2747 4.13357C21.6253 3.78826 21.4242 3.20427 20.9447 3.1281L18.248 2.74724H18.2428ZM13.2 13C12.2873 13 11.55 13.7261 11.55 14.625V24.375C11.55 25.2738 12.2873 26 13.2 26H19.8C20.7127 26 21.45 25.2738 21.45 24.375V14.625C21.45 13.7261 20.7127 13 19.8 13H13.2ZM1.65 16.25C0.737344 16.25 0 16.9761 0 17.875V24.375C0 25.2738 0.737344 26 1.65 26H8.25C9.16266 26 9.9 25.2738 9.9 24.375V17.875C9.9 16.9761 9.16266 16.25 8.25 16.25H1.65ZM23.1 21.125V24.375C23.1 25.2738 23.8373 26 24.75 26H31.35C32.2627 26 33 25.2738 33 24.375V21.125C33 20.2262 32.2627 19.5 31.35 19.5H24.75C23.8373 19.5 23.1 20.2262 23.1 21.125Z" fill="white"/>
</g>
<defs>
<clipPath id="clip0_822_325">
<rect width="33" height="26" fill="white"/>
</clipPath>
</defs>
</svg>
