<svg width="35" height="35" viewBox="0 0 35 35" fill="none" xmlns="http://www.w3.org/2000/svg">
<path d="M17.5002 0.700195C8.2217 0.700195 0.700195 8.2217 0.700195 17.5002C0.700195 26.7787 8.2217 34.3002 17.5002 34.3002C26.7787 34.3002 34.3002 26.7787 34.3002 17.5002C34.3002 8.2217 26.7787 0.700195 17.5002 0.700195ZM13.3877 24.4634H9.98569V13.5154H13.3877V24.4634ZM11.6657 12.1714C10.5912 12.1714 9.89645 11.4102 9.89645 10.4687C9.89645 9.50795 10.6122 8.76945 11.7094 8.76945C12.8067 8.76945 13.4787 9.50795 13.4997 10.4687C13.4997 11.4102 12.8067 12.1714 11.6657 12.1714ZM25.8127 24.4634H22.4107V18.3962C22.4107 16.9839 21.9172 16.0249 20.6869 16.0249C19.7472 16.0249 19.1889 16.6742 18.9422 17.2989C18.8512 17.5212 18.8284 17.8362 18.8284 18.1494V24.4617H15.4247V17.0067C15.4247 15.6399 15.3809 14.4972 15.3354 13.5137H18.2912L18.4469 15.0344H18.5152C18.9632 14.3204 20.0604 13.2669 21.8962 13.2669C24.1344 13.2669 25.8127 14.7667 25.8127 17.9902V24.4634Z" fill="white"/>
</svg>
