<svg width="27" height="29" viewBox="0 0 27 29" fill="none" xmlns="http://www.w3.org/2000/svg">
<path fill-rule="evenodd" clip-rule="evenodd" d="M4.25 0.75C3.15598 0.75 2.10677 1.1846 1.33318 1.95818C0.559597 2.73177 0.125 3.78098 0.125 4.875V24.125C0.125 25.219 0.559597 26.2682 1.33318 27.0418C2.10677 27.8154 3.15598 28.25 4.25 28.25H12.5C13.594 28.25 14.6432 27.8154 15.4168 27.0418C16.1904 26.2682 16.625 25.219 16.625 24.125V4.875C16.625 3.78098 16.1904 2.73177 15.4168 1.95818C14.6432 1.1846 13.594 0.75 12.5 0.75H4.25ZM18.4029 8.02788C18.6607 7.7701 19.0104 7.62529 19.375 7.62529C19.7396 7.62529 20.0893 7.7701 20.3471 8.02788L25.8471 13.5279C26.1049 13.7857 26.2497 14.1354 26.2497 14.5C26.2497 14.8646 26.1049 15.2143 25.8471 15.4721L20.3471 20.9721C20.0878 21.2226 19.7405 21.3612 19.3799 21.3581C19.0194 21.3549 18.6746 21.2103 18.4196 20.9554C18.1647 20.7004 18.0201 20.3556 18.0169 19.9951C18.0138 19.6345 18.1524 19.2872 18.4029 19.0279L21.5557 15.875H9.75C9.38533 15.875 9.03559 15.7301 8.77773 15.4723C8.51987 15.2144 8.375 14.8647 8.375 14.5C8.375 14.1353 8.51987 13.7856 8.77773 13.5277C9.03559 13.2699 9.38533 13.125 9.75 13.125H21.5557L18.4029 9.97213C18.1451 9.71427 18.0003 9.3646 18.0003 9C18.0003 8.6354 18.1451 8.28573 18.4029 8.02788Z" fill="white"/>
</svg>
