<svg width="35" height="35" viewBox="0 0 35 35" fill="none" xmlns="http://www.w3.org/2000/svg">
<g clip-path="url(#clip0_821_589)">
<path d="M15.2954 8.93799L10.5697 1.0623C10.3754 0.738322 10.1005 0.470188 9.77174 0.284022C9.44302 0.0978559 9.07168 4.63836e-06 8.6939 0H1.09575C0.210498 0 -0.307667 0.995996 0.19956 1.72129L7.80591 12.5877C9.83755 10.6894 12.4215 9.38643 15.2954 8.93799ZM33.9041 0H26.306C25.5376 0 24.8253 0.40332 24.4302 1.0623L19.7045 8.93799C22.5784 9.38643 25.1624 10.6894 27.194 12.587L34.8003 1.72129C35.3076 0.995996 34.7894 0 33.9041 0ZM17.5 10.9375C10.8554 10.9375 5.4687 16.3242 5.4687 22.9688C5.4687 29.6133 10.8554 35 17.5 35C24.1445 35 29.5312 29.6133 29.5312 22.9688C29.5312 16.3242 24.1445 10.9375 17.5 10.9375ZM23.8246 21.6877L21.2317 24.2143L21.8449 27.784C21.9542 28.4238 21.2802 28.9126 20.7067 28.6104L17.5 26.9254L14.2939 28.6104C13.7197 28.9146 13.0463 28.4231 13.1557 27.784L13.7689 24.2143L11.176 21.6877C10.7098 21.2338 10.9675 20.4415 11.6101 20.3485L15.1942 19.8263L16.7958 16.5778C16.9401 16.2853 17.219 16.141 17.4986 16.141C17.7795 16.141 18.0605 16.2873 18.2047 16.5778L19.8064 19.8263L23.3905 20.3485C24.0331 20.4415 24.2908 21.2338 23.8246 21.6877Z" fill="#FCE363"/>
</g>
<defs>
<clipPath id="clip0_821_589">
<rect width="35" height="35" fill="white"/>
</clipPath>
</defs>
</svg>
