<svg width="22" height="22" viewBox="0 0 22 22" fill="none" xmlns="http://www.w3.org/2000/svg">
<path d="M20.7502 20.7502L16.0453 16.0453M16.0453 16.0453C16.8501 15.2405 17.4885 14.2851 17.9241 13.2336C18.3596 12.182 18.5838 11.055 18.5838 9.91689C18.5838 8.77874 18.3596 7.65173 17.9241 6.60021C17.4885 5.5487 16.8501 4.59327 16.0453 3.78847C15.2405 2.98368 14.2851 2.34528 13.2336 1.90973C12.182 1.47418 11.055 1.25 9.91689 1.25C8.77874 1.25 7.65173 1.47418 6.60021 1.90973C5.5487 2.34528 4.59327 2.98368 3.78847 3.78847C2.16312 5.41383 1.25 7.61829 1.25 9.91689C1.25 12.2155 2.16312 14.4199 3.78847 16.0453C5.41383 17.6707 7.61829 18.5838 9.91689 18.5838C12.2155 18.5838 14.4199 17.6707 16.0453 16.0453Z" stroke="white" stroke-width="2.5" stroke-linecap="round" stroke-linejoin="round"/>
</svg>
