<svg width="20" height="21" viewBox="0 0 20 21" fill="none" xmlns="http://www.w3.org/2000/svg">
<path d="M18.9521 1.04794C18.2811 0.376956 17.371 0 16.4221 0C15.4732 0 14.5631 0.376956 13.8921 1.04794L1.94011 13.0009C1.5339 13.4072 1.24832 13.9181 1.11511 14.4769L0.0201114 19.0779C-0.00953695 19.2026 -0.0067572 19.3328 0.0281857 19.456C0.0631286 19.5793 0.12907 19.6916 0.219719 19.7821C0.310369 19.8727 0.422706 19.9385 0.546015 19.9733C0.669324 20.0081 0.799494 20.0107 0.924111 19.9809L5.52511 18.8849C6.0843 18.7519 6.5956 18.4663 7.00211 18.0599L8.15311 16.9089C7.91603 15.8416 7.95201 14.7318 8.2577 13.6821C8.56339 12.6324 9.12892 11.6767 9.90196 10.9036C10.675 10.1304 11.6306 9.56477 12.6803 9.25895C13.7299 8.95312 14.8398 8.917 15.9071 9.15394L18.9521 6.10894C19.6231 5.43794 20.0001 4.52787 20.0001 3.57894C20.0001 2.63001 19.6231 1.71995 18.9521 1.04894M20.0001 15.5009C20.0001 14.0423 19.4206 12.6433 18.3892 11.6119C17.3577 10.5804 15.9588 10.0009 14.5001 10.0009C13.0414 10.0009 11.6425 10.5804 10.611 11.6119C9.57957 12.6433 9.00011 14.0423 9.00011 15.5009C9.00011 16.9596 9.57957 18.3586 10.611 19.39C11.6425 20.4215 13.0414 21.0009 14.5001 21.0009C15.9588 21.0009 17.3577 20.4215 18.3892 19.39C19.4206 18.3586 20.0001 16.9596 20.0001 15.5009ZM10.5001 15.5009C10.4998 14.7738 10.6978 14.0604 11.0726 13.4374C11.4475 12.8143 11.9851 12.3052 12.6276 11.9649C13.2701 11.6245 13.9932 11.4657 14.7192 11.5055C15.4453 11.5453 16.1467 11.7823 16.7481 12.1909L11.1911 17.7489C10.7397 17.0863 10.4989 16.3028 10.5001 15.5009ZM14.5001 19.5009C13.6982 19.502 12.9146 19.2608 12.2521 18.8089L17.8091 13.2519C18.218 13.8533 18.4552 14.5547 18.4952 15.2808C18.5352 16.0069 18.3765 16.7302 18.0362 17.3728C17.6959 18.0155 17.1869 18.5532 16.5638 18.9281C15.9408 19.3031 15.2273 19.5012 14.5001 19.5009Z" fill="white"/>
</svg>
