<svg width="21" height="21" viewBox="0 0 21 21" fill="none" xmlns="http://www.w3.org/2000/svg">
<path d="M0.613223 11.1217H2.36597C2.66822 15.1283 5.88047 18.3491 9.87835 18.6514V20.3783C9.87835 20.7236 10.1461 21 10.4915 21C10.8455 21 11.1132 20.7236 11.1132 20.3783V18.6514C15.1111 18.3491 18.3233 15.1283 18.6256 11.1214H20.3783C20.4601 11.1218 20.5411 11.106 20.6167 11.0749C20.6923 11.0438 20.7609 10.9981 20.8187 10.9403C20.8766 10.8825 20.9223 10.8139 20.9535 10.7383C20.9846 10.6627 21.0004 10.5817 21.0001 10.5C21.0001 10.1546 20.7237 9.88688 20.3783 9.88688H18.6256C18.3233 5.88037 15.1111 2.6595 11.1132 2.35725V0.62175C11.1132 0.276375 10.8451 0 10.4915 0C10.1461 0 9.87835 0.276375 9.87835 0.62175V2.35725C5.88047 2.6595 2.66822 5.88037 2.36597 9.88725H0.613223C0.267848 9.88687 0.0375977 10.1542 0.0375977 10.5C0.0375977 10.8454 0.267848 11.1217 0.613223 11.1217ZM10.4915 7.08938C10.8455 7.08938 11.1132 6.813 11.1132 6.46762V3.765C14.36 4.05825 16.8811 6.60563 17.1665 9.88688H14.5325C14.1875 9.88688 13.9107 10.1546 13.9107 10.5C13.9107 10.8454 14.1871 11.1217 14.5325 11.1217H17.1665C16.8815 14.3944 14.36 16.9417 11.1132 17.2354V14.5324C11.1132 14.1874 10.8455 13.9193 10.4915 13.9193C10.1461 13.9193 9.87835 14.187 9.87835 14.5324V17.2354C6.6316 16.9417 4.11047 14.3944 3.82547 11.1217H6.4591C6.8041 11.1217 7.08085 10.8454 7.08085 10.5C7.08085 10.1546 6.80447 9.88688 6.4591 9.88688H3.8251C4.1101 6.60563 6.63122 4.05825 9.87797 3.765V6.46762C9.87797 6.81262 10.1461 7.08938 10.4915 7.08938Z" fill="white"/>
</svg>
