<svg width="31" height="31" viewBox="0 0 31 31" fill="none" xmlns="http://www.w3.org/2000/svg">
<path d="M15.5 0.1875C7.04395 0.1875 0.1875 7.04395 0.1875 15.5C0.1875 23.9561 7.04395 30.8125 15.5 30.8125C23.9561 30.8125 30.8125 23.9561 30.8125 15.5C30.8125 7.04395 23.9561 0.1875 15.5 0.1875ZM22.8589 11.73C22.8691 11.8906 22.8691 12.0581 22.8691 12.2222C22.8691 17.2397 19.0479 23.0195 12.0649 23.0195C9.91162 23.0195 7.91553 22.394 6.23389 21.3174C6.5415 21.3516 6.83545 21.3652 7.1499 21.3652C8.92725 21.3652 10.561 20.7637 11.8633 19.7451C10.1953 19.7109 8.79395 18.6172 8.31543 17.1133C8.8999 17.1987 9.42627 17.1987 10.0278 17.0449C9.16899 16.8704 8.39703 16.404 7.84312 15.7248C7.28921 15.0457 6.9875 14.1957 6.98926 13.3193V13.2715C7.4917 13.5552 8.08301 13.7295 8.70166 13.7534C8.18159 13.4068 7.75508 12.9372 7.45995 12.3863C7.16482 11.8354 7.01019 11.2202 7.00977 10.5952C7.00977 9.8877 7.19434 9.2417 7.52588 8.68115C8.47916 9.85467 9.66871 10.8145 11.0172 11.4981C12.3657 12.1818 13.843 12.5741 15.353 12.6494C14.8164 10.0688 16.7441 7.98047 19.0615 7.98047C20.1553 7.98047 21.1396 8.43848 21.8335 9.17676C22.6914 9.01611 23.5117 8.69482 24.2432 8.26416C23.9595 9.14258 23.3647 9.88428 22.5752 10.3525C23.3408 10.2705 24.0791 10.0586 24.7627 9.76123C24.2466 10.52 23.6006 11.1934 22.8589 11.73Z" fill="white"/>
</svg>
