<svg width="35" height="35" viewBox="0 0 35 35" fill="none" xmlns="http://www.w3.org/2000/svg">
<path d="M17.5 0C7.83563 0 0 7.83563 0 17.5C0 27.1644 7.83563 35 17.5 35C27.1644 35 35 27.1644 35 17.5C34.9883 7.84 27.16 0.0116667 17.5015 0H17.5ZM16.7781 22.8798C16.8773 23.1758 16.0125 24.0392 15.9396 24.0888C15.8667 24.1383 14.2625 23.2502 13.9898 23.1263C13.6096 22.4806 13.3159 21.7878 13.1163 21.0656L13.1017 21.0044L12.5096 20.4371C12.5096 20.4371 11.1533 19.425 11.0294 19.3769C10.9054 19.3288 10.659 17.4285 10.5802 17.255C10.3666 16.9524 10.1135 16.6797 9.82771 16.4442L9.82042 16.4383C9.67822 15.8583 9.60383 15.2637 9.59875 14.6665V14.6621C9.66146 14.0335 9.86417 13.4633 10.1748 12.9675L10.1646 12.9835C10.559 12.3161 10.6728 11.5195 10.481 10.7683L10.4854 10.7887C10.3367 10.5423 9.36979 10.9054 9.36979 10.9054C9.11992 10.7676 8.85393 10.6613 8.57792 10.589L8.55312 10.5831L8.05292 9.64979C8.05292 9.64979 5.07208 9.43688 5.12167 9.36396C7.96104 5.37979 12.5635 2.81313 17.7669 2.81313C18.4567 2.81313 19.1363 2.85833 19.8027 2.94583L19.724 2.93708H19.8844C20.4181 2.97646 20.911 2.97646 21.191 3.47229C21.2465 3.56854 22.2469 4.44792 22.2221 4.44792H19.4892L18.9219 4.94083L21.4156 6.43125C21.0744 6.52458 20.3802 6.74042 19.9135 6.88917C19.5976 6.98841 19.3011 7.14134 19.0371 7.34125L19.0444 7.33542L18.0585 8.07479L17.1413 9.38583L18.4771 10.3731C18.4771 10.3731 20.0317 11.5573 20.1104 11.6069C20.1892 11.6565 20.5042 10.6196 20.5042 10.6196C20.4682 9.82042 20.4342 9.02028 20.4021 8.21917L21.1415 8.46562L22.2265 8.36646L23.4354 9.29979C23.644 9.62646 23.851 10.0056 24.029 10.4023L24.0523 10.4606C24.0377 10.6269 23.921 11.5325 24.131 11.566H24.1398C24.1783 11.5658 24.2161 11.5552 24.2492 11.5354C24.624 11.3531 24.9783 11.1417 25.3356 10.9302C25.5048 10.8296 25.8665 10.5087 26.0721 10.5087C25.9831 10.8733 25.8563 11.1942 25.6915 11.4917L25.7017 11.4713C25.6638 11.5296 24.7392 13.0681 24.3454 13.7215C24.2215 13.9256 24.0844 14.1021 23.9269 14.2596L22.6435 15.5662L23.0883 16.3304L22.015 17.6006C21.9254 17.7065 21.8284 17.8059 21.7248 17.8981L21.7219 17.901L20.5713 18.9204C20.5713 18.9204 19.3142 19.2165 19.2383 19.2165C19.1625 19.2165 18.2263 19.4381 18.2263 19.4381C18.2263 19.4381 16.45 19.266 16.2035 20.2023C16.1486 21.1404 16.3492 22.0758 16.784 22.909L16.7708 22.8798H16.7781ZM29.8827 18.3035C30.1073 18.254 29.2848 19.3535 29.2337 19.5256C28.9643 19.8998 28.6644 20.251 28.3369 20.5756L26.9369 20.7506C27.0493 20.1175 27.3667 19.5389 27.8402 19.1038C28.3138 18.6688 28.9171 18.4014 29.5575 18.3429L29.5692 18.3415C29.7223 18.3269 29.839 18.3137 29.8827 18.3035ZM21.9421 22.6858L21.2873 21.7175C21.2348 21.6388 21.5483 21.299 21.5483 21.299C21.5483 21.299 24.0348 20.9329 24.2696 20.9577C24.5044 20.9825 24.8967 21.7175 24.8967 21.7175C24.8967 21.7175 24.0333 22.8419 23.7446 22.8419C23.4558 22.8419 21.9392 22.6858 21.9392 22.6858H21.9421ZM22.6042 26.0808C22.6042 26.0808 22.3052 26.2063 22.0063 26.355C21.7073 26.5038 21.3325 26.6292 21.2829 26.53C21.0867 26.3232 20.8653 26.1419 20.6238 25.9904L20.6092 25.9817C20.2468 25.7191 19.8606 25.491 19.4556 25.3006L19.4119 25.2817C19.0264 25.0834 18.6878 24.8049 18.4188 24.465L18.4144 24.4592C18.3502 24.3148 18.6637 23.886 18.7133 23.6615C18.7629 23.4369 18.6885 22.7675 18.8388 22.8448C18.989 22.9221 19.3127 22.7281 19.6365 22.8448C20.001 22.96 20.3117 23.1569 20.5581 23.415L20.5596 23.4165C20.7098 23.7431 20.9198 24.0173 21.1794 24.236L21.1823 24.239C21.4565 24.414 21.9552 24.6123 21.9304 24.939C21.9056 25.2656 22.3052 25.6871 22.3052 25.6871L22.6042 26.0808ZM23.0912 30.7475C21.7335 30.1452 21.3938 29.4642 21.4973 29.3344C21.9348 28.9465 22.3358 28.5542 22.7165 28.1415L22.7267 28.1298C22.9877 27.7638 24.3498 26.2194 24.3498 26.2194L23.9312 25.3823L25.0979 24.691C25.4435 24.484 25.8504 24.344 26.2879 24.3002L26.2996 24.2988L27.4371 24.1879C27.5051 24.1811 27.5727 24.1767 27.6398 24.1748L29.4744 24.1252C29.4744 24.1252 31.1413 23.6935 30.8875 24.1515C27.0696 31.0494 23.0912 30.7446 23.0912 30.7446V30.7475Z" fill="white"/>
</svg>
