<svg width="74" height="74" viewBox="0 0 74 74" fill="none" xmlns="http://www.w3.org/2000/svg">
<g id="mdi:world">
<path id="Vector" d="M55.1915 53.6191C54.3898 51.1525 52.0773 49.3333 49.3332 49.3333H46.2498V40.0833C46.2498 39.2655 45.925 38.4813 45.3468 37.903C44.7685 37.3248 43.9843 37 43.1665 37H24.6665V30.8333H30.8332C31.6509 30.8333 32.4352 30.5084 33.0134 29.9302C33.5917 29.352 33.9165 28.5677 33.9165 27.75V21.5833H40.0832C41.7187 21.5833 43.2872 20.9336 44.4437 19.7771C45.6001 18.6206 46.2498 17.0521 46.2498 15.4166V14.1525C49.939 15.6398 53.2128 17.9988 55.791 21.0278C58.3692 24.0567 60.1751 27.6653 61.054 31.5447C61.9329 35.424 61.8587 39.4585 60.8377 43.3029C59.8167 47.1473 57.8794 50.687 55.1915 53.6191ZM33.9165 61.4508C21.7373 59.94 12.3332 49.58 12.3332 37C12.3332 35.0883 12.5798 33.2383 12.9807 31.4808L27.7498 46.25V49.3333C27.7498 50.9688 28.3995 52.5373 29.556 53.6938C30.7125 54.8503 32.281 55.5 33.9165 55.5M36.9998 6.16663C32.9507 6.16663 28.9413 6.96415 25.2004 8.51367C21.4596 10.0632 18.0605 12.3344 15.1974 15.1975C9.41501 20.9799 6.1665 28.8225 6.1665 37C6.1665 45.1775 9.41501 53.0201 15.1974 58.8024C18.0605 61.6656 21.4596 63.9367 25.2004 65.4863C28.9413 67.0358 32.9507 67.8333 36.9998 67.8333C45.1773 67.8333 53.0199 64.5848 58.8023 58.8024C64.5847 53.0201 67.8332 45.1775 67.8332 37C67.8332 32.9509 67.0356 28.9414 65.4861 25.2006C63.9366 21.4597 61.6654 18.0606 58.8023 15.1975C55.9392 12.3344 52.5401 10.0632 48.7992 8.51367C45.0584 6.96415 41.0489 6.16663 36.9998 6.16663Z" fill="white"/>
</g>
</svg>
