<svg width="19" height="19" viewBox="0 0 19 19" fill="none" xmlns="http://www.w3.org/2000/svg">
<g id="emojione-v1:flag-for-azerbaijan">
<path id="Vector" d="M0 7.125H19V11.875H0V7.125Z" fill="#EC1C24"/>
<path id="Vector_2" d="M16.0312 2.96875H2.96875C1.00136 2.96875 0 4.43086 0 6.23438V7.125H19V6.23438C19 4.43086 17.9986 2.96875 16.0312 2.96875Z" fill="#1B75BB"/>
<path id="Vector_3" d="M0 12.7656C0 14.5691 1.00136 16.0312 2.96875 16.0312H16.0312C17.9986 16.0312 19 14.5691 19 12.7656V11.875H0V12.7656Z" fill="#29B473"/>
<g id="Group">
<path id="Vector_4" fill-rule="evenodd" clip-rule="evenodd" d="M10.4945 10.4589C10.1107 11.0556 9.31209 11.4336 8.47639 11.1901C7.68819 10.9595 7.14669 10.1956 7.19211 9.37177C7.23545 8.54408 7.85652 7.83989 8.66461 7.6962C9.5205 7.54509 10.2072 8.00347 10.5017 8.48292C10.1528 8.14211 9.7485 7.98714 9.27469 8.04206C8.90389 8.08481 8.59336 8.25225 8.35111 8.53488C7.87552 9.08795 7.89273 9.91831 8.3897 10.4408C8.67411 10.7407 9.02413 10.8968 9.43767 10.9007C9.85003 10.9036 10.1997 10.7475 10.4945 10.4589Z" fill="#E6E7E8"/>
<path id="Vector_5" d="M11.8246 9.68351L12.2759 9.4662L11.8246 9.2477L11.9909 8.77656L11.5174 8.94192L11.2992 8.49097L11.0824 8.94192L10.6098 8.77656L10.7737 9.2477L10.3242 9.4662L10.7737 9.68351L10.6098 10.1561L11.0824 9.99137L11.2992 10.4411L11.5174 9.99137L11.9909 10.1561L11.8246 9.68351Z" fill="#E6E7E8"/>
</g>
</g>
</svg>
