<svg width="72" height="72" viewBox="0 0 72 72" fill="none" xmlns="http://www.w3.org/2000/svg">
<g id="mingcute:calendar-fill" clip-path="url(#clip0_35_134)">
<g id="Group">
<path id="Vector" d="M63 36V57C63 58.5913 62.3679 60.1174 61.2426 61.2426C60.1174 62.3679 58.5913 63 57 63H15C13.4087 63 11.8826 62.3679 10.7574 61.2426C9.63214 60.1174 9 58.5913 9 57V36H63ZM48 9C48.7957 9 49.5587 9.31607 50.1213 9.87868C50.6839 10.4413 51 11.2044 51 12V15H57C58.5913 15 60.1174 15.6321 61.2426 16.7574C62.3679 17.8826 63 19.4087 63 21V30H9V21C9 19.4087 9.63214 17.8826 10.7574 16.7574C11.8826 15.6321 13.4087 15 15 15H21V12C21 11.2044 21.3161 10.4413 21.8787 9.87868C22.4413 9.31607 23.2044 9 24 9C24.7956 9 25.5587 9.31607 26.1213 9.87868C26.6839 10.4413 27 11.2044 27 12V15H45V12C45 11.2044 45.3161 10.4413 45.8787 9.87868C46.4413 9.31607 47.2043 9 48 9Z" fill="black"/>
</g>
</g>
<defs>
<clipPath id="clip0_35_134">
<rect width="72" height="72" fill="white"/>
</clipPath>
</defs>
</svg>
