<svg width="26" height="24" viewBox="0 0 26 24" fill="none" xmlns="http://www.w3.org/2000/svg">
<path d="M13 18.875C14.5625 18.875 15.8908 18.3283 16.985 17.235C18.0792 16.1417 18.6258 14.8133 18.625 13.25C18.6242 11.6867 18.0775 10.3587 16.985 9.26625C15.8925 8.17375 14.5642 7.62667 13 7.625C11.4358 7.62333 10.1079 8.17042 9.01625 9.26625C7.92458 10.3621 7.3775 11.69 7.375 13.25C7.3725 14.81 7.91958 16.1383 9.01625 17.235C10.1129 18.3317 11.4408 18.8783 13 18.875ZM13 16.375C12.125 16.375 11.3854 16.0729 10.7812 15.4688C10.1771 14.8646 9.875 14.125 9.875 13.25C9.875 12.375 10.1771 11.6354 10.7812 11.0312C11.3854 10.4271 12.125 10.125 13 10.125C13.875 10.125 14.6146 10.4271 15.2188 11.0312C15.8229 11.6354 16.125 12.375 16.125 13.25C16.125 14.125 15.8229 14.8646 15.2188 15.4688C14.6146 16.0729 13.875 16.375 13 16.375ZM3 23.25C2.3125 23.25 1.72417 23.0054 1.235 22.5163C0.745833 22.0271 0.500833 21.4383 0.5 20.75V5.75C0.5 5.0625 0.745 4.47417 1.235 3.985C1.725 3.49583 2.31333 3.25083 3 3.25H6.9375L9.25 0.75H16.75L19.0625 3.25H23C23.6875 3.25 24.2763 3.495 24.7663 3.985C25.2563 4.475 25.5008 5.06333 25.5 5.75V20.75C25.5 21.4375 25.2554 22.0263 24.7663 22.5163C24.2771 23.0063 23.6883 23.2508 23 23.25H3Z" fill="#8B94B8"/>
</svg>
