<svg width="32" height="32" viewBox="0 0 32 32" fill="none" xmlns="http://www.w3.org/2000/svg">
<g id="carbon:security">
<path id="Vector" d="M14 16.59L11.41 14L10 15.41L14 19.41L22 11.41L20.59 10L14 16.59Z" fill="white"/>
<path id="Vector_2" d="M16 30L9.824 26.707C8.06333 25.7703 6.59097 24.3719 5.56492 22.6617C4.53887 20.9516 3.99788 18.9943 4 17V4C4.00053 3.46973 4.21141 2.96133 4.58637 2.58637C4.96133 2.21141 5.46973 2.00053 6 2H26C26.5303 2.00053 27.0387 2.21141 27.4136 2.58637C27.7886 2.96133 27.9995 3.46973 28 4V17C28.0021 18.9943 27.4611 20.9516 26.4351 22.6617C25.409 24.3719 23.9367 25.7703 22.176 26.707L16 30ZM6 4V17C5.99834 18.6318 6.4411 20.2333 7.28076 21.6325C8.12042 23.0317 9.32528 24.1758 10.766 24.942L16 27.733L21.234 24.943C22.6749 24.1767 23.8798 23.0324 24.7195 21.633C25.5592 20.2336 26.0018 18.632 26 17V4H6Z" fill="white"/>
</g>
</svg>
