<svg width="26" height="23" viewBox="0 0 26 23" fill="none" xmlns="http://www.w3.org/2000/svg">
<path fill-rule="evenodd" clip-rule="evenodd" d="M21.3877 17.9549C22.3838 16.9587 22.9434 15.6075 22.9434 14.1987C22.9434 12.7899 22.3838 11.4387 21.3877 10.4424L13.2127 2.26744C12.9781 2.03306 12.8463 1.7151 12.8462 1.38351C12.8461 1.05192 12.9777 0.733867 13.2121 0.499316C13.4464 0.264765 13.7644 0.13293 14.096 0.132813C14.4276 0.132695 14.7456 0.264306 14.9802 0.498691L23.1552 8.67369C24.6205 10.1387 25.4438 12.1258 25.4441 14.1978C25.4443 16.2698 24.6214 18.2571 23.1564 19.7224C21.6914 21.1878 19.7044 22.0111 17.6323 22.0113C15.5603 22.0116 13.573 21.1887 12.1077 19.7237L2.16519 9.77994C1.11012 8.72471 0.517461 7.29358 0.517578 5.80137C0.517695 4.30917 1.11058 2.87813 2.16581 1.82307C3.22104 0.768002 4.65218 0.175338 6.14438 0.175456C7.63658 0.175573 9.06762 0.768461 10.1227 1.82369L20.0639 11.7649C20.6934 12.4133 21.0425 13.2832 21.0358 14.1868C21.0291 15.0905 20.6671 15.9551 20.028 16.594C19.389 17.2329 18.5242 17.5947 17.6206 17.6012C16.717 17.6077 15.8471 17.2583 15.1989 16.6287L6.14144 7.56994C5.90689 7.33556 5.77505 7.0176 5.77494 6.68601C5.77482 6.35442 5.90643 6.03637 6.14081 5.80182C6.3752 5.56727 6.69316 5.43543 7.02475 5.43531C7.35633 5.4352 7.67439 5.56681 7.90894 5.80119L16.9677 14.8599C17.1437 15.0361 17.3826 15.1352 17.6316 15.1353C17.8807 15.1354 18.1196 15.0366 18.2958 14.8606C18.472 14.6845 18.5711 14.4457 18.5712 14.1966C18.5713 13.9476 18.4725 13.7086 18.2964 13.5324L8.35519 3.59119C8.06497 3.30081 7.72039 3.07043 7.34114 2.91321C6.96188 2.75599 6.55537 2.67501 6.14482 2.67489C5.73427 2.67478 5.32772 2.75553 4.94837 2.91253C4.56903 3.06954 4.22432 3.29972 3.93394 3.58994C3.34748 4.17607 3.01788 4.97116 3.01764 5.80031C3.01741 6.62945 3.34656 7.42473 3.93269 8.01119L13.8752 17.9537C14.8715 18.9498 16.2226 19.5094 17.6314 19.5094C19.0403 19.5094 20.3914 18.9498 21.3877 17.9537V17.9549Z" fill="#8B94B8"/>
</svg>
