<svg width="30" height="30" viewBox="0 0 30 30" fill="none" xmlns="http://www.w3.org/2000/svg">
<g id="ri:instagram-fill">
<path id="Vector" d="M16.2852 2.5C17.6915 2.50375 18.4052 2.51125 19.0215 2.52875L19.264 2.5375C19.544 2.5475 19.8202 2.56 20.154 2.575C21.484 2.6375 22.3915 2.8475 23.1877 3.15625C24.0127 3.47375 24.7077 3.90375 25.4027 4.5975C26.0384 5.22237 26.5302 5.97824 26.844 6.8125C27.1527 7.60875 27.3627 8.51625 27.4252 9.8475C27.4402 10.18 27.4527 10.4563 27.4627 10.7375L27.4702 10.98C27.489 11.595 27.4965 12.3088 27.499 13.715L27.5002 14.6475V16.285C27.5033 17.1968 27.4937 18.1085 27.4715 19.02L27.464 19.2625C27.454 19.5437 27.4415 19.82 27.4265 20.1525C27.364 21.4837 27.1515 22.39 26.844 23.1875C26.5311 24.0222 26.0391 24.7783 25.4027 25.4025C24.7777 26.0379 24.0219 26.5297 23.1877 26.8438C22.3915 27.1525 21.484 27.3625 20.154 27.425C19.8574 27.439 19.5607 27.4515 19.264 27.4625L19.0215 27.47C18.4052 27.4875 17.6915 27.4963 16.2852 27.4988L15.3527 27.5H13.7165C12.8043 27.5031 11.8921 27.4936 10.9802 27.4712L10.7377 27.4638C10.441 27.4525 10.1443 27.4396 9.84773 27.425C8.51773 27.3625 7.61023 27.1525 6.81273 26.8438C5.97857 26.5305 5.223 26.0386 4.59898 25.4025C3.96279 24.7779 3.47051 24.0219 3.15648 23.1875C2.84773 22.3912 2.63773 21.4837 2.57523 20.1525C2.56131 19.8559 2.54881 19.5592 2.53773 19.2625L2.53148 19.02C2.50845 18.1085 2.49803 17.1968 2.50023 16.285V13.715C2.49674 12.8033 2.50591 11.8915 2.52773 10.98L2.53648 10.7375C2.54648 10.4563 2.55898 10.18 2.57398 9.8475C2.63648 8.51625 2.84648 7.61 3.15523 6.8125C3.46913 5.97738 3.96238 5.22128 4.60023 4.5975C5.2241 3.96184 5.97916 3.46998 6.81273 3.15625C7.61023 2.8475 8.51648 2.6375 9.84773 2.575C10.1802 2.56 10.4577 2.5475 10.7377 2.5375L10.9802 2.53C11.8917 2.50779 12.8035 2.49821 13.7152 2.50125L16.2852 2.5ZM15.0002 8.75C13.3426 8.75 11.7529 9.40848 10.5808 10.5806C9.40871 11.7527 8.75023 13.3424 8.75023 15C8.75023 16.6576 9.40871 18.2473 10.5808 19.4194C11.7529 20.5915 13.3426 21.25 15.0002 21.25C16.6578 21.25 18.2475 20.5915 19.4197 19.4194C20.5918 18.2473 21.2502 16.6576 21.2502 15C21.2502 13.3424 20.5918 11.7527 19.4197 10.5806C18.2475 9.40848 16.6578 8.75 15.0002 8.75ZM15.0002 11.25C15.4927 11.2499 15.9803 11.3468 16.4353 11.5352C16.8903 11.7236 17.3038 11.9997 17.6521 12.3479C18.0003 12.6961 18.2766 13.1094 18.4652 13.5644C18.6537 14.0193 18.7508 14.5069 18.7509 14.9994C18.7509 15.4918 18.654 15.9795 18.4656 16.4345C18.2773 16.8895 18.0011 17.3029 17.653 17.6512C17.3048 17.9995 16.8914 18.2758 16.4365 18.4643C15.9816 18.6528 15.4939 18.7499 15.0015 18.75C14.0069 18.75 13.0531 18.3549 12.3498 17.6517C11.6466 16.9484 11.2515 15.9946 11.2515 15C11.2515 14.0054 11.6466 13.0516 12.3498 12.3483C13.0531 11.6451 14.0069 11.25 15.0015 11.25M21.564 6.875C21.1496 6.875 20.7522 7.03962 20.4591 7.33265C20.1661 7.62567 20.0015 8.0231 20.0015 8.4375C20.0015 8.8519 20.1661 9.24933 20.4591 9.54235C20.7522 9.83538 21.1496 10 21.564 10C21.9784 10 22.3758 9.83538 22.6688 9.54235C22.9619 9.24933 23.1265 8.8519 23.1265 8.4375C23.1265 8.0231 22.9619 7.62567 22.6688 7.33265C22.3758 7.03962 21.9784 6.875 21.564 6.875Z" fill="white"/>
</g>
</svg>
