<svg width="30" height="30" viewBox="0 0 30 30" fill="none" xmlns="http://www.w3.org/2000/svg">
<path d="M0.428726 15.2413C0.428726 7.19642 6.95308 0.673828 15.0002 0.673828C23.0472 0.673828 29.5716 7.19642 29.5716 15.2413C29.5716 23.2862 23.0472 29.8088 15.0002 29.8088C12.613 29.8122 10.2619 29.2268 8.15523 28.1044L2.36308 29.7517C2.10307 29.8256 1.82806 29.8287 1.56646 29.7607C1.30485 29.6927 1.06615 29.5561 0.875027 29.365C0.683898 29.174 0.547275 28.9353 0.479275 28.6738C0.411275 28.4123 0.414365 28.1373 0.488226 27.8774L2.1348 22.0868C1.01133 19.9801 0.425308 17.6287 0.428726 15.2413ZM9.53587 12.5099C9.53587 13.0125 9.94387 13.4204 10.4466 13.4204H19.5537C19.7953 13.4204 20.0269 13.3244 20.1977 13.1537C20.3685 12.983 20.4644 12.7514 20.4644 12.5099C20.4644 12.2684 20.3685 12.0369 20.1977 11.8661C20.0269 11.6954 19.7953 11.5994 19.5537 11.5994H10.4466C10.205 11.5994 9.9734 11.6954 9.80261 11.8661C9.63182 12.0369 9.53587 12.2684 9.53587 12.5099ZM10.4466 17.0622C10.205 17.0622 9.9734 17.1582 9.80261 17.3289C9.63182 17.4997 9.53587 17.7312 9.53587 17.9727C9.53587 18.2142 9.63182 18.4458 9.80261 18.6165C9.9734 18.7873 10.205 18.8832 10.4466 18.8832H15.9109C16.1524 18.8832 16.384 18.7873 16.5548 18.6165C16.7256 18.4458 16.8216 18.2142 16.8216 17.9727C16.8216 17.7312 16.7256 17.4997 16.5548 17.3289C16.384 17.1582 16.1524 17.0622 15.9109 17.0622H10.4466Z" fill="black"/>
</svg>
