<svg width="50" height="50" viewBox="0 0 50 50" fill="none" xmlns="http://www.w3.org/2000/svg">
<g id="iconamoon:profile-circle-fill">
<path id="Vector" fill-rule="evenodd" clip-rule="evenodd" d="M25 8.33366C22.0849 8.33312 19.2207 9.09718 16.6931 10.5496C14.1656 12.0019 12.0632 14.0918 10.5958 16.6106C9.12845 19.1295 8.34736 21.9891 8.33054 24.9041C8.31372 27.8192 9.06175 30.6877 10.5 33.2232C11.4721 31.9599 12.7217 30.937 14.1522 30.2336C15.5828 29.5303 17.1559 29.1653 18.75 29.167H31.25C32.8441 29.1653 34.4172 29.5303 35.8477 30.2336C37.2783 30.937 38.5279 31.9599 39.5 33.2232C40.9382 30.6877 41.6862 27.8192 41.6694 24.9041C41.6526 21.9891 40.8715 19.1295 39.4041 16.6106C37.9367 14.0918 35.8343 12.0019 33.3068 10.5496C30.7793 9.09718 27.9151 8.33312 25 8.33366ZM41.5479 37.6587C44.3334 34.0273 45.84 29.5769 45.8333 25.0003C45.8333 13.4941 36.5062 4.16699 25 4.16699C13.4937 4.16699 4.16665 13.4941 4.16665 25.0003C4.15977 29.577 5.66645 34.0274 8.45207 37.6587L8.44165 37.6962L9.18123 38.5566C11.1352 40.841 13.5612 42.6745 16.2921 43.9308C19.0231 45.1871 21.9939 45.8363 25 45.8337C29.2236 45.8414 33.3487 44.5585 36.8229 42.1566C38.304 41.1333 39.647 39.9233 40.8187 38.5566L41.5583 37.6962L41.5479 37.6587ZM25 12.5003C23.3424 12.5003 21.7527 13.1588 20.5806 14.3309C19.4085 15.503 18.75 17.0927 18.75 18.7503C18.75 20.4079 19.4085 21.9976 20.5806 23.1697C21.7527 24.3418 23.3424 25.0003 25 25.0003C26.6576 25.0003 28.2473 24.3418 29.4194 23.1697C30.5915 21.9976 31.25 20.4079 31.25 18.7503C31.25 17.0927 30.5915 15.503 29.4194 14.3309C28.2473 13.1588 26.6576 12.5003 25 12.5003Z" fill="white"/>
</g>
</svg>
