<svg width="54" height="54" viewBox="0 0 54 54" fill="none" xmlns="http://www.w3.org/2000/svg">
<g id="iconamoon:profile-circle-fill">
<path id="Vector" fill-rule="evenodd" clip-rule="evenodd" d="M27 9C23.8517 8.99942 20.7584 9.8246 18.0286 11.3932C15.2989 12.9617 13.0284 15.2188 11.4436 17.9391C9.85877 20.6595 9.01519 23.7479 8.99703 26.8961C8.97886 30.0444 9.78674 33.1423 11.34 35.8807C12.3899 34.5163 13.7395 33.4116 15.2845 32.652C16.8294 31.8923 18.5284 31.4982 20.25 31.5H33.75C35.4716 31.4982 37.1706 31.8923 38.7156 32.652C40.2606 33.4116 41.6101 34.5163 42.66 35.8807C44.2133 33.1423 45.0212 30.0444 45.003 26.8961C44.9849 23.7479 44.1413 20.6595 42.5565 17.9391C40.9717 15.2188 38.7011 12.9617 35.9714 11.3932C33.2417 9.8246 30.1483 8.99942 27 9ZM44.8718 40.671C47.8801 36.7492 49.5073 31.9427 49.5 27C49.5 14.5733 39.4268 4.5 27 4.5C14.5733 4.5 4.50003 14.5733 4.50003 27C4.4926 31.9428 6.11981 36.7493 9.12828 40.671L9.11703 40.7115L9.91578 41.6408C12.026 44.1079 14.6461 46.0881 17.5955 47.4449C20.545 48.8018 23.7535 49.5029 27 49.5C31.5615 49.5084 36.0167 48.1228 39.7688 45.5288C41.3684 44.4236 42.8188 43.1168 44.0843 41.6408L44.883 40.7115L44.8718 40.671ZM27 13.5C25.2098 13.5 23.4929 14.2112 22.2271 15.477C20.9612 16.7429 20.25 18.4598 20.25 20.25C20.25 22.0402 20.9612 23.7571 22.2271 25.023C23.4929 26.2888 25.2098 27 27 27C28.7902 27 30.5071 26.2888 31.773 25.023C33.0389 23.7571 33.75 22.0402 33.75 20.25C33.75 18.4598 33.0389 16.7429 31.773 15.477C30.5071 14.2112 28.7902 13.5 27 13.5Z" fill="#303085"/>
</g>
</svg>
