<svg width="223" height="193" viewBox="0 0 223 193" fill="none" xmlns="http://www.w3.org/2000/svg">
<path id="Vector" d="M25.4583 192.125C18.6979 192.125 12.9126 190.046 8.1025 185.888C3.29236 181.73 0.883194 176.726 0.875 170.875V22.125C0.875 16.2812 3.28417 11.2804 8.1025 7.1225C12.9208 2.96458 18.7061 0.882083 25.4583 0.875H197.542C204.302 0.875 210.091 2.9575 214.91 7.1225C219.728 11.2875 222.133 16.2883 222.125 22.125V170.875C222.125 176.719 219.72 181.723 214.91 185.888C210.1 190.053 204.31 192.132 197.542 192.125H25.4583ZM25.4583 170.875H197.542V22.125H25.4583V170.875ZM37.75 149.625H185.25L139.156 96.5L102.281 139L74.625 107.125L37.75 149.625Z" fill="black"/>
</svg>
