<svg width="74" height="74" viewBox="0 0 74 74" fill="none" xmlns="http://www.w3.org/2000/svg">
<g id="mdi:world">
<path id="Vector" d="M55.1917 53.6191C54.39 51.1525 52.0775 49.3333 49.3333 49.3333H46.25V40.0833C46.25 39.2655 45.9251 38.4813 45.3469 37.903C44.7687 37.3248 43.9844 37 43.1667 37H24.6667V30.8333H30.8333C31.6511 30.8333 32.4353 30.5084 33.0136 29.9302C33.5918 29.352 33.9167 28.5677 33.9167 27.75V21.5833H40.0833C41.7188 21.5833 43.2873 20.9336 44.4438 19.7771C45.6003 18.6206 46.25 17.0521 46.25 15.4166V14.1525C49.9391 15.6398 53.2129 17.9988 55.7911 21.0278C58.3694 24.0567 60.1752 27.6653 61.0541 31.5447C61.933 35.424 61.8588 39.4585 60.8379 43.3029C59.8169 47.1473 57.8795 50.687 55.1917 53.6191ZM33.9167 61.4508C21.7375 59.94 12.3333 49.58 12.3333 37C12.3333 35.0883 12.58 33.2383 12.9808 31.4808L27.75 46.25V49.3333C27.75 50.9688 28.3997 52.5373 29.5562 53.6938C30.7126 54.8503 32.2812 55.5 33.9167 55.5M37 6.16663C32.9509 6.16663 28.9415 6.96415 25.2006 8.51367C21.4597 10.0632 18.0607 12.3344 15.1975 15.1975C9.41516 20.9799 6.16666 28.8225 6.16666 37C6.16666 45.1775 9.41516 53.0201 15.1975 58.8024C18.0607 61.6656 21.4597 63.9367 25.2006 65.4863C28.9415 67.0358 32.9509 67.8333 37 67.8333C45.1775 67.8333 53.0201 64.5848 58.8025 58.8024C64.5848 53.0201 67.8333 45.1775 67.8333 37C67.8333 32.9509 67.0358 28.9414 65.4863 25.2006C63.9368 21.4597 61.6656 18.0606 58.8025 15.1975C55.9393 12.3344 52.5403 10.0632 48.7994 8.51367C45.0585 6.96415 41.0491 6.16663 37 6.16663Z" fill="black"/>
</g>
</svg>
